M48
; DRILL file {KiCad (6.0.1)} date Mon Jan 24 21:36:59 2022
; FORMAT={-:-/ absolute / metric / decimal}
; #@! TF.CreationDate,2022-01-24T21:36:59+01:00
; #@! TF.GenerationSoftware,Kicad,Pcbnew,(6.0.1)
; #@! TF.FileFunction,Plated,1,2,PTH
FMAT,2
METRIC
; #@! TA.AperFunction,Plated,PTH,ViaDrill
T1C0.400
; #@! TA.AperFunction,Plated,PTH,ComponentDrill
T2C0.600
; #@! TA.AperFunction,Plated,PTH,ComponentDrill
T3C0.700
; #@! TA.AperFunction,Plated,PTH,ComponentDrill
T4C0.750
; #@! TA.AperFunction,Plated,PTH,ViaDrill
T5C0.800
; #@! TA.AperFunction,Plated,PTH,ComponentDrill
T6C0.800
; #@! TA.AperFunction,Plated,PTH,ViaDrill
T7C1.000
; #@! TA.AperFunction,Plated,PTH,ComponentDrill
T8C1.000
; #@! TA.AperFunction,Plated,PTH,ComponentDrill
T9C1.100
; #@! TA.AperFunction,Plated,PTH,ComponentDrill
T10C1.300
%
G90
G05
T1
X132.5Y-95.0
X150.2Y-135.7
X151.1Y-140.8
X153.416Y-115.778
X155.372Y-115.778
X160.134Y-143.439
X160.386Y-112.598
X161.29Y-126.238
X171.3Y-94.2
X172.974Y-126.238
X175.5Y-86.7
T2
X111.25Y-91.75
X112.55Y-86.75
T3
X112.065Y-100.249
X112.065Y-105.329
T4
X150.038Y-109.266
X150.038Y-110.536
X150.038Y-111.806
T5
X118.542Y-107.361
X155.702Y-127.0
X158.242Y-127.0
X158.433Y-115.189
X162.306Y-115.316
X169.672Y-120.65
T6
X151.435Y-88.692
X151.435Y-93.692
X151.435Y-97.836
X153.935Y-97.836
X154.9Y-87.25
X159.9Y-87.25
X163.373Y-89.454
X163.373Y-91.954
T7
X132.258Y-111.552
X150.165Y-138.73
X156.845Y-110.744
X171.247Y-99.233
X172.263Y-109.012
T8
X117.78Y-93.772
X117.78Y-98.772
X147.18Y-88.572
X147.18Y-103.972
T9
X113.97Y-112.314
X124.13Y-112.314
X128.829Y-112.187
X138.989Y-112.187
T10
X102.0Y-103.5
X102.0Y-126.0
X102.54Y-88.692
X102.54Y-93.692
X102.65Y-142.54
X107.65Y-142.54
X112.65Y-142.54
X113.05Y-119.14
X113.05Y-131.34
X117.898Y-142.54
X119.05Y-117.14
X122.898Y-142.54
X125.05Y-119.14
X125.05Y-131.34
X127.898Y-142.54
X132.1Y-119.14
X132.1Y-131.34
X133.147Y-142.54
X138.1Y-117.14
X138.147Y-142.54
X143.147Y-142.54
X144.1Y-119.14
X144.1Y-131.34
X175.184Y-97.0
X175.184Y-102.0
T0
M30
