%FSLAX45Y45*%
G04 Gerber Fmt 4.5, Leading zero omitted, Abs format (unit mm)*
G04 Created by KiCad (PCBNEW (6.0.1)) date 2022-01-24 21:37:40*
%MOMM*%
%LPD*%
G01*
G04 APERTURE LIST*
%TA.AperFunction,Profile*%
%ADD10C,0.150000*%
%TD*%
%ADD11C,0.200000*%
%ADD12C,0.270000*%
G04 APERTURE END LIST*
D10*
X18200000Y-14800000D02*
X9500000Y-14800000D01*
X9500000Y-8500000D02*
X18200000Y-8500000D01*
X18200000Y-8500000D02*
X18200000Y-14800000D01*
X9500000Y-14800000D02*
X9500000Y-8500000D01*
D11*
D12*
X10065000Y-11340000D02*
X10335000Y-11610000D01*
X10335000Y-11340000D02*
X10065000Y-11610000D01*
D11*
X9750119Y-15117976D02*
X9750119Y-14917976D01*
X9797738Y-14917976D01*
X9826310Y-14927500D01*
X9845357Y-14946548D01*
X9854881Y-14965595D01*
X9864405Y-15003690D01*
X9864405Y-15032262D01*
X9854881Y-15070357D01*
X9845357Y-15089405D01*
X9826310Y-15108452D01*
X9797738Y-15117976D01*
X9750119Y-15117976D01*
X9950119Y-15117976D02*
X9950119Y-14984643D01*
X9950119Y-15022738D02*
X9959643Y-15003690D01*
X9969167Y-14994167D01*
X9988214Y-14984643D01*
X10007262Y-14984643D01*
X10073929Y-15117976D02*
X10073929Y-14984643D01*
X10073929Y-14917976D02*
X10064405Y-14927500D01*
X10073929Y-14937024D01*
X10083452Y-14927500D01*
X10073929Y-14917976D01*
X10073929Y-14937024D01*
X10197738Y-15117976D02*
X10178690Y-15108452D01*
X10169167Y-15089405D01*
X10169167Y-14917976D01*
X10302500Y-15117976D02*
X10283452Y-15108452D01*
X10273929Y-15089405D01*
X10273929Y-14917976D01*
X10531071Y-15117976D02*
X10531071Y-14917976D01*
X10597738Y-15060833D01*
X10664405Y-14917976D01*
X10664405Y-15117976D01*
X10845357Y-15117976D02*
X10845357Y-15013214D01*
X10835833Y-14994167D01*
X10816786Y-14984643D01*
X10778690Y-14984643D01*
X10759643Y-14994167D01*
X10845357Y-15108452D02*
X10826310Y-15117976D01*
X10778690Y-15117976D01*
X10759643Y-15108452D01*
X10750119Y-15089405D01*
X10750119Y-15070357D01*
X10759643Y-15051309D01*
X10778690Y-15041786D01*
X10826310Y-15041786D01*
X10845357Y-15032262D01*
X10940595Y-14984643D02*
X10940595Y-15184643D01*
X10940595Y-14994167D02*
X10959643Y-14984643D01*
X10997738Y-14984643D01*
X11016786Y-14994167D01*
X11026310Y-15003690D01*
X11035833Y-15022738D01*
X11035833Y-15079881D01*
X11026310Y-15098928D01*
X11016786Y-15108452D01*
X10997738Y-15117976D01*
X10959643Y-15117976D01*
X10940595Y-15108452D01*
X11121548Y-15098928D02*
X11131071Y-15108452D01*
X11121548Y-15117976D01*
X11112024Y-15108452D01*
X11121548Y-15098928D01*
X11121548Y-15117976D01*
X11121548Y-14994167D02*
X11131071Y-15003690D01*
X11121548Y-15013214D01*
X11112024Y-15003690D01*
X11121548Y-14994167D01*
X11121548Y-15013214D01*
X9292500Y-15347500D02*
X9492500Y-15547500D01*
X9492500Y-15347500D02*
X9292500Y-15547500D01*
X9740595Y-15357024D02*
X9750119Y-15347500D01*
X9769167Y-15337976D01*
X9816786Y-15337976D01*
X9835833Y-15347500D01*
X9845357Y-15357024D01*
X9854881Y-15376071D01*
X9854881Y-15395119D01*
X9845357Y-15423690D01*
X9731071Y-15537976D01*
X9854881Y-15537976D01*
X9940595Y-15518928D02*
X9950119Y-15528452D01*
X9940595Y-15537976D01*
X9931071Y-15528452D01*
X9940595Y-15518928D01*
X9940595Y-15537976D01*
X10016786Y-15337976D02*
X10150119Y-15337976D01*
X10064405Y-15537976D01*
X10264405Y-15337976D02*
X10283452Y-15337976D01*
X10302500Y-15347500D01*
X10312024Y-15357024D01*
X10321548Y-15376071D01*
X10331071Y-15414167D01*
X10331071Y-15461786D01*
X10321548Y-15499881D01*
X10312024Y-15518928D01*
X10302500Y-15528452D01*
X10283452Y-15537976D01*
X10264405Y-15537976D01*
X10245357Y-15528452D01*
X10235833Y-15518928D01*
X10226310Y-15499881D01*
X10216786Y-15461786D01*
X10216786Y-15414167D01*
X10226310Y-15376071D01*
X10235833Y-15357024D01*
X10245357Y-15347500D01*
X10264405Y-15337976D01*
X10454881Y-15337976D02*
X10473929Y-15337976D01*
X10492976Y-15347500D01*
X10502500Y-15357024D01*
X10512024Y-15376071D01*
X10521548Y-15414167D01*
X10521548Y-15461786D01*
X10512024Y-15499881D01*
X10502500Y-15518928D01*
X10492976Y-15528452D01*
X10473929Y-15537976D01*
X10454881Y-15537976D01*
X10435833Y-15528452D01*
X10426310Y-15518928D01*
X10416786Y-15499881D01*
X10407262Y-15461786D01*
X10407262Y-15414167D01*
X10416786Y-15376071D01*
X10426310Y-15357024D01*
X10435833Y-15347500D01*
X10454881Y-15337976D01*
X10607262Y-15537976D02*
X10607262Y-15404643D01*
X10607262Y-15423690D02*
X10616786Y-15414167D01*
X10635833Y-15404643D01*
X10664405Y-15404643D01*
X10683452Y-15414167D01*
X10692976Y-15433214D01*
X10692976Y-15537976D01*
X10692976Y-15433214D02*
X10702500Y-15414167D01*
X10721548Y-15404643D01*
X10750119Y-15404643D01*
X10769167Y-15414167D01*
X10778690Y-15433214D01*
X10778690Y-15537976D01*
X10873929Y-15537976D02*
X10873929Y-15404643D01*
X10873929Y-15423690D02*
X10883452Y-15414167D01*
X10902500Y-15404643D01*
X10931071Y-15404643D01*
X10950119Y-15414167D01*
X10959643Y-15433214D01*
X10959643Y-15537976D01*
X10959643Y-15433214D02*
X10969167Y-15414167D01*
X10988214Y-15404643D01*
X11016786Y-15404643D01*
X11035833Y-15414167D01*
X11045357Y-15433214D01*
X11045357Y-15537976D01*
X11435833Y-15328452D02*
X11264405Y-15585595D01*
X11692976Y-15337976D02*
X11712024Y-15337976D01*
X11731071Y-15347500D01*
X11740595Y-15357024D01*
X11750119Y-15376071D01*
X11759643Y-15414167D01*
X11759643Y-15461786D01*
X11750119Y-15499881D01*
X11740595Y-15518928D01*
X11731071Y-15528452D01*
X11712024Y-15537976D01*
X11692976Y-15537976D01*
X11673928Y-15528452D01*
X11664405Y-15518928D01*
X11654881Y-15499881D01*
X11645357Y-15461786D01*
X11645357Y-15414167D01*
X11654881Y-15376071D01*
X11664405Y-15357024D01*
X11673928Y-15347500D01*
X11692976Y-15337976D01*
X11845357Y-15518928D02*
X11854881Y-15528452D01*
X11845357Y-15537976D01*
X11835833Y-15528452D01*
X11845357Y-15518928D01*
X11845357Y-15537976D01*
X12045357Y-15537976D02*
X11931071Y-15537976D01*
X11988214Y-15537976D02*
X11988214Y-15337976D01*
X11969167Y-15366548D01*
X11950119Y-15385595D01*
X11931071Y-15395119D01*
X12169167Y-15337976D02*
X12188214Y-15337976D01*
X12207262Y-15347500D01*
X12216786Y-15357024D01*
X12226309Y-15376071D01*
X12235833Y-15414167D01*
X12235833Y-15461786D01*
X12226309Y-15499881D01*
X12216786Y-15518928D01*
X12207262Y-15528452D01*
X12188214Y-15537976D01*
X12169167Y-15537976D01*
X12150119Y-15528452D01*
X12140595Y-15518928D01*
X12131071Y-15499881D01*
X12121548Y-15461786D01*
X12121548Y-15414167D01*
X12131071Y-15376071D01*
X12140595Y-15357024D01*
X12150119Y-15347500D01*
X12169167Y-15337976D01*
X12407262Y-15337976D02*
X12369167Y-15337976D01*
X12350119Y-15347500D01*
X12340595Y-15357024D01*
X12321548Y-15385595D01*
X12312024Y-15423690D01*
X12312024Y-15499881D01*
X12321548Y-15518928D01*
X12331071Y-15528452D01*
X12350119Y-15537976D01*
X12388214Y-15537976D01*
X12407262Y-15528452D01*
X12416786Y-15518928D01*
X12426309Y-15499881D01*
X12426309Y-15452262D01*
X12416786Y-15433214D01*
X12407262Y-15423690D01*
X12388214Y-15414167D01*
X12350119Y-15414167D01*
X12331071Y-15423690D01*
X12321548Y-15433214D01*
X12312024Y-15452262D01*
X12492976Y-15337976D02*
X12616786Y-15337976D01*
X12550119Y-15414167D01*
X12578690Y-15414167D01*
X12597738Y-15423690D01*
X12607262Y-15433214D01*
X12616786Y-15452262D01*
X12616786Y-15499881D01*
X12607262Y-15518928D01*
X12597738Y-15528452D01*
X12578690Y-15537976D01*
X12521548Y-15537976D01*
X12502500Y-15528452D01*
X12492976Y-15518928D01*
X12692976Y-15337976D02*
X12692976Y-15376071D01*
X12769167Y-15337976D02*
X12769167Y-15376071D01*
X13064405Y-15614167D02*
X13054881Y-15604643D01*
X13035833Y-15576071D01*
X13026309Y-15557024D01*
X13016786Y-15528452D01*
X13007262Y-15480833D01*
X13007262Y-15442738D01*
X13016786Y-15395119D01*
X13026309Y-15366548D01*
X13035833Y-15347500D01*
X13054881Y-15318928D01*
X13064405Y-15309405D01*
X13245357Y-15537976D02*
X13131071Y-15537976D01*
X13188214Y-15537976D02*
X13188214Y-15337976D01*
X13169167Y-15366548D01*
X13150119Y-15385595D01*
X13131071Y-15395119D01*
X13483452Y-15537976D02*
X13483452Y-15337976D01*
X13569167Y-15537976D02*
X13569167Y-15433214D01*
X13559643Y-15414167D01*
X13540595Y-15404643D01*
X13512024Y-15404643D01*
X13492976Y-15414167D01*
X13483452Y-15423690D01*
X13692976Y-15537976D02*
X13673928Y-15528452D01*
X13664405Y-15518928D01*
X13654881Y-15499881D01*
X13654881Y-15442738D01*
X13664405Y-15423690D01*
X13673928Y-15414167D01*
X13692976Y-15404643D01*
X13721548Y-15404643D01*
X13740595Y-15414167D01*
X13750119Y-15423690D01*
X13759643Y-15442738D01*
X13759643Y-15499881D01*
X13750119Y-15518928D01*
X13740595Y-15528452D01*
X13721548Y-15537976D01*
X13692976Y-15537976D01*
X13873928Y-15537976D02*
X13854881Y-15528452D01*
X13845357Y-15509405D01*
X13845357Y-15337976D01*
X14026309Y-15528452D02*
X14007262Y-15537976D01*
X13969167Y-15537976D01*
X13950119Y-15528452D01*
X13940595Y-15509405D01*
X13940595Y-15433214D01*
X13950119Y-15414167D01*
X13969167Y-15404643D01*
X14007262Y-15404643D01*
X14026309Y-15414167D01*
X14035833Y-15433214D01*
X14035833Y-15452262D01*
X13940595Y-15471309D01*
X14102500Y-15614167D02*
X14112024Y-15604643D01*
X14131071Y-15576071D01*
X14140595Y-15557024D01*
X14150119Y-15528452D01*
X14159643Y-15480833D01*
X14159643Y-15442738D01*
X14150119Y-15395119D01*
X14140595Y-15366548D01*
X14131071Y-15347500D01*
X14112024Y-15318928D01*
X14102500Y-15309405D01*
X14464405Y-15614167D02*
X14454881Y-15604643D01*
X14435833Y-15576071D01*
X14426309Y-15557024D01*
X14416786Y-15528452D01*
X14407262Y-15480833D01*
X14407262Y-15442738D01*
X14416786Y-15395119D01*
X14426309Y-15366548D01*
X14435833Y-15347500D01*
X14454881Y-15318928D01*
X14464405Y-15309405D01*
X14540595Y-15404643D02*
X14540595Y-15537976D01*
X14540595Y-15423690D02*
X14550119Y-15414167D01*
X14569167Y-15404643D01*
X14597738Y-15404643D01*
X14616786Y-15414167D01*
X14626309Y-15433214D01*
X14626309Y-15537976D01*
X14750119Y-15537976D02*
X14731071Y-15528452D01*
X14721548Y-15518928D01*
X14712024Y-15499881D01*
X14712024Y-15442738D01*
X14721548Y-15423690D01*
X14731071Y-15414167D01*
X14750119Y-15404643D01*
X14778690Y-15404643D01*
X14797738Y-15414167D01*
X14807262Y-15423690D01*
X14816786Y-15442738D01*
X14816786Y-15499881D01*
X14807262Y-15518928D01*
X14797738Y-15528452D01*
X14778690Y-15537976D01*
X14750119Y-15537976D01*
X14873928Y-15404643D02*
X14950119Y-15404643D01*
X14902500Y-15337976D02*
X14902500Y-15509405D01*
X14912024Y-15528452D01*
X14931071Y-15537976D01*
X14950119Y-15537976D01*
X15169167Y-15404643D02*
X15169167Y-15604643D01*
X15169167Y-15414167D02*
X15188214Y-15404643D01*
X15226309Y-15404643D01*
X15245357Y-15414167D01*
X15254881Y-15423690D01*
X15264405Y-15442738D01*
X15264405Y-15499881D01*
X15254881Y-15518928D01*
X15245357Y-15528452D01*
X15226309Y-15537976D01*
X15188214Y-15537976D01*
X15169167Y-15528452D01*
X15378690Y-15537976D02*
X15359643Y-15528452D01*
X15350119Y-15509405D01*
X15350119Y-15337976D01*
X15540595Y-15537976D02*
X15540595Y-15433214D01*
X15531071Y-15414167D01*
X15512024Y-15404643D01*
X15473928Y-15404643D01*
X15454881Y-15414167D01*
X15540595Y-15528452D02*
X15521548Y-15537976D01*
X15473928Y-15537976D01*
X15454881Y-15528452D01*
X15445357Y-15509405D01*
X15445357Y-15490357D01*
X15454881Y-15471309D01*
X15473928Y-15461786D01*
X15521548Y-15461786D01*
X15540595Y-15452262D01*
X15607262Y-15404643D02*
X15683452Y-15404643D01*
X15635833Y-15337976D02*
X15635833Y-15509405D01*
X15645357Y-15528452D01*
X15664405Y-15537976D01*
X15683452Y-15537976D01*
X15826309Y-15528452D02*
X15807262Y-15537976D01*
X15769167Y-15537976D01*
X15750119Y-15528452D01*
X15740595Y-15509405D01*
X15740595Y-15433214D01*
X15750119Y-15414167D01*
X15769167Y-15404643D01*
X15807262Y-15404643D01*
X15826309Y-15414167D01*
X15835833Y-15433214D01*
X15835833Y-15452262D01*
X15740595Y-15471309D01*
X16007262Y-15537976D02*
X16007262Y-15337976D01*
X16007262Y-15528452D02*
X15988214Y-15537976D01*
X15950119Y-15537976D01*
X15931071Y-15528452D01*
X15921548Y-15518928D01*
X15912024Y-15499881D01*
X15912024Y-15442738D01*
X15921548Y-15423690D01*
X15931071Y-15414167D01*
X15950119Y-15404643D01*
X15988214Y-15404643D01*
X16007262Y-15414167D01*
X16083452Y-15614167D02*
X16092976Y-15604643D01*
X16112024Y-15576071D01*
X16121548Y-15557024D01*
X16131071Y-15528452D01*
X16140595Y-15480833D01*
X16140595Y-15442738D01*
X16131071Y-15395119D01*
X16121548Y-15366548D01*
X16112024Y-15347500D01*
X16092976Y-15318928D01*
X16083452Y-15309405D01*
M02*
