%TF.GenerationSoftware,KiCad,Pcbnew,(6.0.1)*%
%TF.CreationDate,2022-01-24T21:35:52+01:00*%
%TF.ProjectId,SmartSwitch,536d6172-7453-4776-9974-63682e6b6963,rev?*%
%TF.SameCoordinates,Original*%
%TF.FileFunction,Legend,Top*%
%TF.FilePolarity,Positive*%
%FSLAX46Y46*%
G04 Gerber Fmt 4.6, Leading zero omitted, Abs format (unit mm)*
G04 Created by KiCad (PCBNEW (6.0.1)) date 2022-01-24 21:35:52*
%MOMM*%
%LPD*%
G01*
G04 APERTURE LIST*
G04 Aperture macros list*
%AMRoundRect*
0 Rectangle with rounded corners*
0 $1 Rounding radius*
0 $2 $3 $4 $5 $6 $7 $8 $9 X,Y pos of 4 corners*
0 Add a 4 corners polygon primitive as box body*
4,1,4,$2,$3,$4,$5,$6,$7,$8,$9,$2,$3,0*
0 Add four circle primitives for the rounded corners*
1,1,$1+$1,$2,$3*
1,1,$1+$1,$4,$5*
1,1,$1+$1,$6,$7*
1,1,$1+$1,$8,$9*
0 Add four rect primitives between the rounded corners*
20,1,$1+$1,$2,$3,$4,$5,0*
20,1,$1+$1,$4,$5,$6,$7,0*
20,1,$1+$1,$6,$7,$8,$9,0*
20,1,$1+$1,$8,$9,$2,$3,0*%
G04 Aperture macros list end*
%ADD10C,0.150000*%
%ADD11C,0.200000*%
%ADD12C,0.120000*%
%ADD13C,2.500000*%
%ADD14R,1.000000X2.500000*%
%ADD15R,1.800000X1.000000*%
%ADD16RoundRect,0.250001X0.462499X0.624999X-0.462499X0.624999X-0.462499X-0.624999X0.462499X-0.624999X0*%
%ADD17RoundRect,0.250001X0.624999X-0.462499X0.624999X0.462499X-0.624999X0.462499X-0.624999X-0.462499X0*%
%ADD18RoundRect,0.250001X-0.462499X-0.624999X0.462499X-0.624999X0.462499X0.624999X-0.462499X0.624999X0*%
%ADD19RoundRect,0.250001X-0.624999X0.462499X-0.624999X-0.462499X0.624999X-0.462499X0.624999X0.462499X0*%
%ADD20R,1.600000X1.600000*%
%ADD21C,1.600000*%
%ADD22R,0.900000X0.800000*%
%ADD23R,2.600000X2.600000*%
%ADD24C,2.600000*%
%ADD25R,0.800000X0.900000*%
%ADD26C,1.000000*%
%ADD27C,1.400000*%
%ADD28O,1.400000X1.400000*%
%ADD29R,2.500000X2.500000*%
%ADD30O,2.500000X2.500000*%
%ADD31R,2.200000X2.200000*%
%ADD32O,2.200000X2.200000*%
%ADD33R,3.150000X1.000000*%
%ADD34R,1.500000X1.050000*%
%ADD35O,1.500000X1.050000*%
%ADD36R,2.750000X1.000000*%
%ADD37C,2.700000*%
%ADD38C,3.000000*%
G04 APERTURE END LIST*
D10*
X95641666Y-132785714D02*
X95879761Y-133452380D01*
X96117857Y-132785714D01*
X97022618Y-133452380D02*
X96451190Y-133452380D01*
X96736904Y-133452380D02*
X96736904Y-132452380D01*
X96641666Y-132595238D01*
X96546428Y-132690476D01*
X96451190Y-132738095D01*
X97451190Y-133357142D02*
X97498809Y-133404761D01*
X97451190Y-133452380D01*
X97403571Y-133404761D01*
X97451190Y-133357142D01*
X97451190Y-133452380D01*
X98117857Y-132452380D02*
X98213095Y-132452380D01*
X98308333Y-132500000D01*
X98355952Y-132547619D01*
X98403571Y-132642857D01*
X98451190Y-132833333D01*
X98451190Y-133071428D01*
X98403571Y-133261904D01*
X98355952Y-133357142D01*
X98308333Y-133404761D01*
X98213095Y-133452380D01*
X98117857Y-133452380D01*
X98022618Y-133404761D01*
X97974999Y-133357142D01*
X97927380Y-133261904D01*
X97879761Y-133071428D01*
X97879761Y-132833333D01*
X97927380Y-132642857D01*
X97974999Y-132547619D01*
X98022618Y-132500000D01*
X98117857Y-132452380D01*
D11*
X96250565Y-129357142D02*
X96196994Y-129404761D01*
X96048184Y-129452380D01*
X95952946Y-129452380D01*
X95816041Y-129404761D01*
X95732708Y-129309523D01*
X95696994Y-129214285D01*
X95673184Y-129023809D01*
X95691041Y-128880952D01*
X95762470Y-128690476D01*
X95821994Y-128595238D01*
X95929136Y-128500000D01*
X96077946Y-128452380D01*
X96173184Y-128452380D01*
X96310089Y-128500000D01*
X96351755Y-128547619D01*
X96655327Y-128785714D02*
X96810089Y-129452380D01*
X97131517Y-128785714D02*
X96810089Y-129452380D01*
X96685089Y-129690476D01*
X96631517Y-129738095D01*
X96530327Y-129785714D01*
X97941041Y-128785714D02*
X97839851Y-129595238D01*
X97780327Y-129690476D01*
X97726755Y-129738095D01*
X97625565Y-129785714D01*
X97482708Y-129785714D01*
X97393422Y-129738095D01*
X97863660Y-129404761D02*
X97762470Y-129452380D01*
X97571994Y-129452380D01*
X97482708Y-129404761D01*
X97441041Y-129357142D01*
X97405327Y-129261904D01*
X97441041Y-128976190D01*
X97500565Y-128880952D01*
X97554136Y-128833333D01*
X97655327Y-128785714D01*
X97845803Y-128785714D01*
X97935089Y-128833333D01*
X98399375Y-128928571D02*
X98732708Y-128928571D01*
X98810089Y-129452380D02*
X98333898Y-129452380D01*
X98458898Y-128452380D01*
X98935089Y-128452380D01*
X99381517Y-129452380D02*
X99292232Y-129404761D01*
X99256517Y-129309523D01*
X99363660Y-128452380D01*
X100149375Y-129404761D02*
X100048184Y-129452380D01*
X99857708Y-129452380D01*
X99768422Y-129404761D01*
X99732708Y-129309523D01*
X99780327Y-128928571D01*
X99839851Y-128833333D01*
X99941041Y-128785714D01*
X100131517Y-128785714D01*
X100220803Y-128833333D01*
X100256517Y-128928571D01*
X100244613Y-129023809D01*
X99756517Y-129119047D01*
X101054136Y-129404761D02*
X100952946Y-129452380D01*
X100762470Y-129452380D01*
X100673184Y-129404761D01*
X100631517Y-129357142D01*
X100595803Y-129261904D01*
X100631517Y-128976190D01*
X100691041Y-128880952D01*
X100744613Y-128833333D01*
X100845803Y-128785714D01*
X101036279Y-128785714D01*
X101125565Y-128833333D01*
X101417232Y-128785714D02*
X101798184Y-128785714D01*
X101601755Y-128452380D02*
X101494613Y-129309523D01*
X101530327Y-129404761D01*
X101619613Y-129452380D01*
X101714851Y-129452380D01*
X102048184Y-129452380D02*
X102131517Y-128785714D01*
X102107708Y-128976190D02*
X102167232Y-128880952D01*
X102220803Y-128833333D01*
X102321994Y-128785714D01*
X102417232Y-128785714D01*
X102810089Y-129452380D02*
X102720803Y-129404761D01*
X102679136Y-129357142D01*
X102643422Y-129261904D01*
X102679136Y-128976190D01*
X102738660Y-128880952D01*
X102792232Y-128833333D01*
X102893422Y-128785714D01*
X103036279Y-128785714D01*
X103125565Y-128833333D01*
X103167232Y-128880952D01*
X103202946Y-128976190D01*
X103167232Y-129261904D01*
X103107708Y-129357142D01*
X103054136Y-129404761D01*
X102952946Y-129452380D01*
X102810089Y-129452380D01*
X103655327Y-128785714D02*
X103571994Y-129452380D01*
X103643422Y-128880952D02*
X103696994Y-128833333D01*
X103798184Y-128785714D01*
X103941041Y-128785714D01*
X104030327Y-128833333D01*
X104066041Y-128928571D01*
X104000565Y-129452380D01*
X104476755Y-129452380D02*
X104560089Y-128785714D01*
X104601755Y-128452380D02*
X104548184Y-128500000D01*
X104589851Y-128547619D01*
X104643422Y-128500000D01*
X104601755Y-128452380D01*
X104589851Y-128547619D01*
X105387470Y-129404761D02*
X105286279Y-129452380D01*
X105095803Y-129452380D01*
X105006517Y-129404761D01*
X104964851Y-129357142D01*
X104929136Y-129261904D01*
X104964851Y-128976190D01*
X105024375Y-128880952D01*
X105077946Y-128833333D01*
X105179136Y-128785714D01*
X105369613Y-128785714D01*
X105458898Y-128833333D01*
X105768422Y-129404761D02*
X105857708Y-129452380D01*
X106048184Y-129452380D01*
X106149375Y-129404761D01*
X106208898Y-129309523D01*
X106214851Y-129261904D01*
X106179136Y-129166666D01*
X106089851Y-129119047D01*
X105946994Y-129119047D01*
X105857708Y-129071428D01*
X105821994Y-128976190D01*
X105827946Y-128928571D01*
X105887470Y-128833333D01*
X105988660Y-128785714D01*
X106131517Y-128785714D01*
X106220803Y-128833333D01*
D10*
X95736905Y-130471130D02*
X95736905Y-131280654D01*
X95784524Y-131375892D01*
X95832143Y-131423511D01*
X95927381Y-131471130D01*
X96117857Y-131471130D01*
X96213095Y-131423511D01*
X96260714Y-131375892D01*
X96308333Y-131280654D01*
X96308333Y-130471130D01*
X96784524Y-130804464D02*
X96784524Y-131471130D01*
X96784524Y-130899702D02*
X96832143Y-130852083D01*
X96927381Y-130804464D01*
X97070238Y-130804464D01*
X97165476Y-130852083D01*
X97213095Y-130947321D01*
X97213095Y-131471130D01*
X97689286Y-131471130D02*
X97689286Y-130804464D01*
X97689286Y-130471130D02*
X97641667Y-130518750D01*
X97689286Y-130566369D01*
X97736905Y-130518750D01*
X97689286Y-130471130D01*
X97689286Y-130566369D01*
X98070238Y-130804464D02*
X98308333Y-131471130D01*
X98546429Y-130804464D01*
X99308333Y-131423511D02*
X99213095Y-131471130D01*
X99022619Y-131471130D01*
X98927381Y-131423511D01*
X98879762Y-131328273D01*
X98879762Y-130947321D01*
X98927381Y-130852083D01*
X99022619Y-130804464D01*
X99213095Y-130804464D01*
X99308333Y-130852083D01*
X99355952Y-130947321D01*
X99355952Y-131042559D01*
X98879762Y-131137797D01*
X99784524Y-131471130D02*
X99784524Y-130804464D01*
X99784524Y-130994940D02*
X99832143Y-130899702D01*
X99879762Y-130852083D01*
X99975000Y-130804464D01*
X100070238Y-130804464D01*
X100355952Y-131423511D02*
X100451191Y-131471130D01*
X100641667Y-131471130D01*
X100736905Y-131423511D01*
X100784524Y-131328273D01*
X100784524Y-131280654D01*
X100736905Y-131185416D01*
X100641667Y-131137797D01*
X100498810Y-131137797D01*
X100403571Y-131090178D01*
X100355952Y-130994940D01*
X100355952Y-130947321D01*
X100403571Y-130852083D01*
X100498810Y-130804464D01*
X100641667Y-130804464D01*
X100736905Y-130852083D01*
X101641667Y-131471130D02*
X101641667Y-130947321D01*
X101594048Y-130852083D01*
X101498810Y-130804464D01*
X101308333Y-130804464D01*
X101213095Y-130852083D01*
X101641667Y-131423511D02*
X101546429Y-131471130D01*
X101308333Y-131471130D01*
X101213095Y-131423511D01*
X101165476Y-131328273D01*
X101165476Y-131233035D01*
X101213095Y-131137797D01*
X101308333Y-131090178D01*
X101546429Y-131090178D01*
X101641667Y-131042559D01*
X102260714Y-131471130D02*
X102165476Y-131423511D01*
X102117857Y-131328273D01*
X102117857Y-130471130D01*
X102594048Y-131423511D02*
X102736905Y-131471130D01*
X102975000Y-131471130D01*
X103070238Y-131423511D01*
X103117857Y-131375892D01*
X103165476Y-131280654D01*
X103165476Y-131185416D01*
X103117857Y-131090178D01*
X103070238Y-131042559D01*
X102975000Y-130994940D01*
X102784524Y-130947321D01*
X102689286Y-130899702D01*
X102641667Y-130852083D01*
X102594048Y-130756845D01*
X102594048Y-130661607D01*
X102641667Y-130566369D01*
X102689286Y-130518750D01*
X102784524Y-130471130D01*
X103022619Y-130471130D01*
X103165476Y-130518750D01*
X103594048Y-131471130D02*
X103594048Y-130804464D01*
X103594048Y-130899702D02*
X103641667Y-130852083D01*
X103736905Y-130804464D01*
X103879762Y-130804464D01*
X103975000Y-130852083D01*
X104022619Y-130947321D01*
X104022619Y-131471130D01*
X104022619Y-130947321D02*
X104070238Y-130852083D01*
X104165476Y-130804464D01*
X104308333Y-130804464D01*
X104403571Y-130852083D01*
X104451191Y-130947321D01*
X104451191Y-131471130D01*
X105355952Y-131471130D02*
X105355952Y-130947321D01*
X105308333Y-130852083D01*
X105213095Y-130804464D01*
X105022619Y-130804464D01*
X104927381Y-130852083D01*
X105355952Y-131423511D02*
X105260714Y-131471130D01*
X105022619Y-131471130D01*
X104927381Y-131423511D01*
X104879762Y-131328273D01*
X104879762Y-131233035D01*
X104927381Y-131137797D01*
X105022619Y-131090178D01*
X105260714Y-131090178D01*
X105355952Y-131042559D01*
X105832143Y-131471130D02*
X105832143Y-130804464D01*
X105832143Y-130994940D02*
X105879762Y-130899702D01*
X105927381Y-130852083D01*
X106022619Y-130804464D01*
X106117857Y-130804464D01*
X106308333Y-130804464D02*
X106689286Y-130804464D01*
X106451191Y-130471130D02*
X106451191Y-131328273D01*
X106498810Y-131423511D01*
X106594048Y-131471130D01*
X106689286Y-131471130D01*
X107022619Y-131471130D02*
X107022619Y-130471130D01*
X107260714Y-130471130D01*
X107403571Y-130518750D01*
X107498810Y-130613988D01*
X107546429Y-130709226D01*
X107594048Y-130899702D01*
X107594048Y-131042559D01*
X107546429Y-131233035D01*
X107498810Y-131328273D01*
X107403571Y-131423511D01*
X107260714Y-131471130D01*
X107022619Y-131471130D01*
X108403571Y-131423511D02*
X108308333Y-131471130D01*
X108117857Y-131471130D01*
X108022619Y-131423511D01*
X107975000Y-131328273D01*
X107975000Y-130947321D01*
X108022619Y-130852083D01*
X108117857Y-130804464D01*
X108308333Y-130804464D01*
X108403571Y-130852083D01*
X108451191Y-130947321D01*
X108451191Y-131042559D01*
X107975000Y-131137797D01*
X108784524Y-130804464D02*
X109022619Y-131471130D01*
X109260714Y-130804464D01*
X157694380Y-128015904D02*
X158503904Y-128015904D01*
X158599142Y-127968285D01*
X158646761Y-127920666D01*
X158694380Y-127825428D01*
X158694380Y-127634952D01*
X158646761Y-127539714D01*
X158599142Y-127492095D01*
X158503904Y-127444476D01*
X157694380Y-127444476D01*
X157789619Y-127015904D02*
X157742000Y-126968285D01*
X157694380Y-126873047D01*
X157694380Y-126634952D01*
X157742000Y-126539714D01*
X157789619Y-126492095D01*
X157884857Y-126444476D01*
X157980095Y-126444476D01*
X158122952Y-126492095D01*
X158694380Y-127063523D01*
X158694380Y-126444476D01*
X122857142Y-107952380D02*
X122523809Y-107476190D01*
X122285714Y-107952380D02*
X122285714Y-106952380D01*
X122666666Y-106952380D01*
X122761904Y-107000000D01*
X122809523Y-107047619D01*
X122857142Y-107142857D01*
X122857142Y-107285714D01*
X122809523Y-107380952D01*
X122761904Y-107428571D01*
X122666666Y-107476190D01*
X122285714Y-107476190D01*
X123238095Y-107047619D02*
X123285714Y-107000000D01*
X123380952Y-106952380D01*
X123619047Y-106952380D01*
X123714285Y-107000000D01*
X123761904Y-107047619D01*
X123809523Y-107142857D01*
X123809523Y-107238095D01*
X123761904Y-107380952D01*
X123190476Y-107952380D01*
X123809523Y-107952380D01*
X124190476Y-107047619D02*
X124238095Y-107000000D01*
X124333333Y-106952380D01*
X124571428Y-106952380D01*
X124666666Y-107000000D01*
X124714285Y-107047619D01*
X124761904Y-107142857D01*
X124761904Y-107238095D01*
X124714285Y-107380952D01*
X124142857Y-107952380D01*
X124761904Y-107952380D01*
X155149642Y-110222380D02*
X154816309Y-109746190D01*
X154578214Y-110222380D02*
X154578214Y-109222380D01*
X154959166Y-109222380D01*
X155054404Y-109270000D01*
X155102023Y-109317619D01*
X155149642Y-109412857D01*
X155149642Y-109555714D01*
X155102023Y-109650952D01*
X155054404Y-109698571D01*
X154959166Y-109746190D01*
X154578214Y-109746190D01*
X156102023Y-110222380D02*
X155530595Y-110222380D01*
X155816309Y-110222380D02*
X155816309Y-109222380D01*
X155721071Y-109365238D01*
X155625833Y-109460476D01*
X155530595Y-109508095D01*
X156959166Y-109222380D02*
X156768690Y-109222380D01*
X156673452Y-109270000D01*
X156625833Y-109317619D01*
X156530595Y-109460476D01*
X156482976Y-109650952D01*
X156482976Y-110031904D01*
X156530595Y-110127142D01*
X156578214Y-110174761D01*
X156673452Y-110222380D01*
X156863928Y-110222380D01*
X156959166Y-110174761D01*
X157006785Y-110127142D01*
X157054404Y-110031904D01*
X157054404Y-109793809D01*
X157006785Y-109698571D01*
X156959166Y-109650952D01*
X156863928Y-109603333D01*
X156673452Y-109603333D01*
X156578214Y-109650952D01*
X156530595Y-109698571D01*
X156482976Y-109793809D01*
X138357142Y-107952380D02*
X138023809Y-107476190D01*
X137785714Y-107952380D02*
X137785714Y-106952380D01*
X138166666Y-106952380D01*
X138261904Y-107000000D01*
X138309523Y-107047619D01*
X138357142Y-107142857D01*
X138357142Y-107285714D01*
X138309523Y-107380952D01*
X138261904Y-107428571D01*
X138166666Y-107476190D01*
X137785714Y-107476190D01*
X138738095Y-107047619D02*
X138785714Y-107000000D01*
X138880952Y-106952380D01*
X139119047Y-106952380D01*
X139214285Y-107000000D01*
X139261904Y-107047619D01*
X139309523Y-107142857D01*
X139309523Y-107238095D01*
X139261904Y-107380952D01*
X138690476Y-107952380D01*
X139309523Y-107952380D01*
X140261904Y-107952380D02*
X139690476Y-107952380D01*
X139976190Y-107952380D02*
X139976190Y-106952380D01*
X139880952Y-107095238D01*
X139785714Y-107190476D01*
X139690476Y-107238095D01*
X164952380Y-100642857D02*
X164476190Y-100976190D01*
X164952380Y-101214285D02*
X163952380Y-101214285D01*
X163952380Y-100833333D01*
X164000000Y-100738095D01*
X164047619Y-100690476D01*
X164142857Y-100642857D01*
X164285714Y-100642857D01*
X164380952Y-100690476D01*
X164428571Y-100738095D01*
X164476190Y-100833333D01*
X164476190Y-101214285D01*
X164952380Y-99690476D02*
X164952380Y-100261904D01*
X164952380Y-99976190D02*
X163952380Y-99976190D01*
X164095238Y-100071428D01*
X164190476Y-100166666D01*
X164238095Y-100261904D01*
X163952380Y-99357142D02*
X163952380Y-98738095D01*
X164333333Y-99071428D01*
X164333333Y-98928571D01*
X164380952Y-98833333D01*
X164428571Y-98785714D01*
X164523809Y-98738095D01*
X164761904Y-98738095D01*
X164857142Y-98785714D01*
X164904761Y-98833333D01*
X164952380Y-98928571D01*
X164952380Y-99214285D01*
X164904761Y-99309523D01*
X164857142Y-99357142D01*
X153876642Y-143542380D02*
X153543309Y-143066190D01*
X153305214Y-143542380D02*
X153305214Y-142542380D01*
X153686166Y-142542380D01*
X153781404Y-142590000D01*
X153829023Y-142637619D01*
X153876642Y-142732857D01*
X153876642Y-142875714D01*
X153829023Y-142970952D01*
X153781404Y-143018571D01*
X153686166Y-143066190D01*
X153305214Y-143066190D01*
X154829023Y-143542380D02*
X154257595Y-143542380D01*
X154543309Y-143542380D02*
X154543309Y-142542380D01*
X154448071Y-142685238D01*
X154352833Y-142780476D01*
X154257595Y-142828095D01*
X155781404Y-143542380D02*
X155209976Y-143542380D01*
X155495690Y-143542380D02*
X155495690Y-142542380D01*
X155400452Y-142685238D01*
X155305214Y-142780476D01*
X155209976Y-142828095D01*
X147857142Y-137452380D02*
X147523809Y-136976190D01*
X147285714Y-137452380D02*
X147285714Y-136452380D01*
X147666666Y-136452380D01*
X147761904Y-136500000D01*
X147809523Y-136547619D01*
X147857142Y-136642857D01*
X147857142Y-136785714D01*
X147809523Y-136880952D01*
X147761904Y-136928571D01*
X147666666Y-136976190D01*
X147285714Y-136976190D01*
X148809523Y-137452380D02*
X148238095Y-137452380D01*
X148523809Y-137452380D02*
X148523809Y-136452380D01*
X148428571Y-136595238D01*
X148333333Y-136690476D01*
X148238095Y-136738095D01*
X149428571Y-136452380D02*
X149523809Y-136452380D01*
X149619047Y-136500000D01*
X149666666Y-136547619D01*
X149714285Y-136642857D01*
X149761904Y-136833333D01*
X149761904Y-137071428D01*
X149714285Y-137261904D01*
X149666666Y-137357142D01*
X149619047Y-137404761D01*
X149523809Y-137452380D01*
X149428571Y-137452380D01*
X149333333Y-137404761D01*
X149285714Y-137357142D01*
X149238095Y-137261904D01*
X149190476Y-137071428D01*
X149190476Y-136833333D01*
X149238095Y-136642857D01*
X149285714Y-136547619D01*
X149333333Y-136500000D01*
X149428571Y-136452380D01*
X157452380Y-100142857D02*
X156976190Y-100476190D01*
X157452380Y-100714285D02*
X156452380Y-100714285D01*
X156452380Y-100333333D01*
X156500000Y-100238095D01*
X156547619Y-100190476D01*
X156642857Y-100142857D01*
X156785714Y-100142857D01*
X156880952Y-100190476D01*
X156928571Y-100238095D01*
X156976190Y-100333333D01*
X156976190Y-100714285D01*
X157452380Y-99190476D02*
X157452380Y-99761904D01*
X157452380Y-99476190D02*
X156452380Y-99476190D01*
X156595238Y-99571428D01*
X156690476Y-99666666D01*
X156738095Y-99761904D01*
X156785714Y-98333333D02*
X157452380Y-98333333D01*
X156404761Y-98571428D02*
X157119047Y-98809523D01*
X157119047Y-98190476D01*
X158952380Y-145142857D02*
X158476190Y-145476190D01*
X158952380Y-145714285D02*
X157952380Y-145714285D01*
X157952380Y-145333333D01*
X158000000Y-145238095D01*
X158047619Y-145190476D01*
X158142857Y-145142857D01*
X158285714Y-145142857D01*
X158380952Y-145190476D01*
X158428571Y-145238095D01*
X158476190Y-145333333D01*
X158476190Y-145714285D01*
X158952380Y-144190476D02*
X158952380Y-144761904D01*
X158952380Y-144476190D02*
X157952380Y-144476190D01*
X158095238Y-144571428D01*
X158190476Y-144666666D01*
X158238095Y-144761904D01*
X158047619Y-143809523D02*
X158000000Y-143761904D01*
X157952380Y-143666666D01*
X157952380Y-143428571D01*
X158000000Y-143333333D01*
X158047619Y-143285714D01*
X158142857Y-143238095D01*
X158238095Y-143238095D01*
X158380952Y-143285714D01*
X158952380Y-143857142D01*
X158952380Y-143238095D01*
X164952380Y-116200166D02*
X164476190Y-116533500D01*
X164952380Y-116771595D02*
X163952380Y-116771595D01*
X163952380Y-116390642D01*
X164000000Y-116295404D01*
X164047619Y-116247785D01*
X164142857Y-116200166D01*
X164285714Y-116200166D01*
X164380952Y-116247785D01*
X164428571Y-116295404D01*
X164476190Y-116390642D01*
X164476190Y-116771595D01*
X164952380Y-115723976D02*
X164952380Y-115533500D01*
X164904761Y-115438261D01*
X164857142Y-115390642D01*
X164714285Y-115295404D01*
X164523809Y-115247785D01*
X164142857Y-115247785D01*
X164047619Y-115295404D01*
X164000000Y-115343023D01*
X163952380Y-115438261D01*
X163952380Y-115628738D01*
X164000000Y-115723976D01*
X164047619Y-115771595D01*
X164142857Y-115819214D01*
X164380952Y-115819214D01*
X164476190Y-115771595D01*
X164523809Y-115723976D01*
X164571428Y-115628738D01*
X164571428Y-115438261D01*
X164523809Y-115343023D01*
X164476190Y-115295404D01*
X164380952Y-115247785D01*
X163857142Y-86666666D02*
X163904761Y-86714285D01*
X163952380Y-86857142D01*
X163952380Y-86952380D01*
X163904761Y-87095238D01*
X163809523Y-87190476D01*
X163714285Y-87238095D01*
X163523809Y-87285714D01*
X163380952Y-87285714D01*
X163190476Y-87238095D01*
X163095238Y-87190476D01*
X163000000Y-87095238D01*
X162952380Y-86952380D01*
X162952380Y-86857142D01*
X163000000Y-86714285D01*
X163047619Y-86666666D01*
X162952380Y-85809523D02*
X162952380Y-86000000D01*
X163000000Y-86095238D01*
X163047619Y-86142857D01*
X163190476Y-86238095D01*
X163380952Y-86285714D01*
X163761904Y-86285714D01*
X163857142Y-86238095D01*
X163904761Y-86190476D01*
X163952380Y-86095238D01*
X163952380Y-85904761D01*
X163904761Y-85809523D01*
X163857142Y-85761904D01*
X163761904Y-85714285D01*
X163523809Y-85714285D01*
X163428571Y-85761904D01*
X163380952Y-85809523D01*
X163333333Y-85904761D01*
X163333333Y-86095238D01*
X163380952Y-86190476D01*
X163428571Y-86238095D01*
X163523809Y-86285714D01*
X168921441Y-97440999D02*
X168826203Y-97393380D01*
X168730965Y-97298141D01*
X168588108Y-97155284D01*
X168492870Y-97107665D01*
X168397632Y-97107665D01*
X168445251Y-97345760D02*
X168350013Y-97298141D01*
X168254775Y-97202903D01*
X168207156Y-97012427D01*
X168207156Y-96679094D01*
X168254775Y-96488618D01*
X168350013Y-96393380D01*
X168445251Y-96345760D01*
X168635727Y-96345760D01*
X168730965Y-96393380D01*
X168826203Y-96488618D01*
X168873822Y-96679094D01*
X168873822Y-97012427D01*
X168826203Y-97202903D01*
X168730965Y-97298141D01*
X168635727Y-97345760D01*
X168445251Y-97345760D01*
X169826203Y-97345760D02*
X169254775Y-97345760D01*
X169540489Y-97345760D02*
X169540489Y-96345760D01*
X169445251Y-96488618D01*
X169350013Y-96583856D01*
X169254775Y-96631475D01*
X171868380Y-119166666D02*
X171392190Y-119500000D01*
X171868380Y-119738095D02*
X170868380Y-119738095D01*
X170868380Y-119357142D01*
X170916000Y-119261904D01*
X170963619Y-119214285D01*
X171058857Y-119166666D01*
X171201714Y-119166666D01*
X171296952Y-119214285D01*
X171344571Y-119261904D01*
X171392190Y-119357142D01*
X171392190Y-119738095D01*
X170868380Y-118833333D02*
X170868380Y-118166666D01*
X171868380Y-118595238D01*
X160883833Y-105452380D02*
X160550500Y-104976190D01*
X160312404Y-105452380D02*
X160312404Y-104452380D01*
X160693357Y-104452380D01*
X160788595Y-104500000D01*
X160836214Y-104547619D01*
X160883833Y-104642857D01*
X160883833Y-104785714D01*
X160836214Y-104880952D01*
X160788595Y-104928571D01*
X160693357Y-104976190D01*
X160312404Y-104976190D01*
X161740976Y-104452380D02*
X161550500Y-104452380D01*
X161455261Y-104500000D01*
X161407642Y-104547619D01*
X161312404Y-104690476D01*
X161264785Y-104880952D01*
X161264785Y-105261904D01*
X161312404Y-105357142D01*
X161360023Y-105404761D01*
X161455261Y-105452380D01*
X161645738Y-105452380D01*
X161740976Y-105404761D01*
X161788595Y-105357142D01*
X161836214Y-105261904D01*
X161836214Y-105023809D01*
X161788595Y-104928571D01*
X161740976Y-104880952D01*
X161645738Y-104833333D01*
X161455261Y-104833333D01*
X161360023Y-104880952D01*
X161312404Y-104928571D01*
X161264785Y-105023809D01*
X169452380Y-94166666D02*
X168976190Y-94500000D01*
X169452380Y-94738095D02*
X168452380Y-94738095D01*
X168452380Y-94357142D01*
X168500000Y-94261904D01*
X168547619Y-94214285D01*
X168642857Y-94166666D01*
X168785714Y-94166666D01*
X168880952Y-94214285D01*
X168928571Y-94261904D01*
X168976190Y-94357142D01*
X168976190Y-94738095D01*
X168452380Y-93261904D02*
X168452380Y-93738095D01*
X168928571Y-93785714D01*
X168880952Y-93738095D01*
X168833333Y-93642857D01*
X168833333Y-93404761D01*
X168880952Y-93309523D01*
X168928571Y-93261904D01*
X169023809Y-93214285D01*
X169261904Y-93214285D01*
X169357142Y-93261904D01*
X169404761Y-93309523D01*
X169452380Y-93404761D01*
X169452380Y-93642857D01*
X169404761Y-93738095D01*
X169357142Y-93785714D01*
X114261904Y-107898380D02*
X114261904Y-106898380D01*
X114500000Y-106898380D01*
X114642857Y-106946000D01*
X114738095Y-107041238D01*
X114785714Y-107136476D01*
X114833333Y-107326952D01*
X114833333Y-107469809D01*
X114785714Y-107660285D01*
X114738095Y-107755523D01*
X114642857Y-107850761D01*
X114500000Y-107898380D01*
X114261904Y-107898380D01*
X115738095Y-106898380D02*
X115261904Y-106898380D01*
X115214285Y-107374571D01*
X115261904Y-107326952D01*
X115357142Y-107279333D01*
X115595238Y-107279333D01*
X115690476Y-107326952D01*
X115738095Y-107374571D01*
X115785714Y-107469809D01*
X115785714Y-107707904D01*
X115738095Y-107803142D01*
X115690476Y-107850761D01*
X115595238Y-107898380D01*
X115357142Y-107898380D01*
X115261904Y-107850761D01*
X115214285Y-107803142D01*
X164068404Y-110692380D02*
X164068404Y-109692380D01*
X164306500Y-109692380D01*
X164449357Y-109740000D01*
X164544595Y-109835238D01*
X164592214Y-109930476D01*
X164639833Y-110120952D01*
X164639833Y-110263809D01*
X164592214Y-110454285D01*
X164544595Y-110549523D01*
X164449357Y-110644761D01*
X164306500Y-110692380D01*
X164068404Y-110692380D01*
X164973166Y-109692380D02*
X165592214Y-109692380D01*
X165258880Y-110073333D01*
X165401738Y-110073333D01*
X165496976Y-110120952D01*
X165544595Y-110168571D01*
X165592214Y-110263809D01*
X165592214Y-110501904D01*
X165544595Y-110597142D01*
X165496976Y-110644761D01*
X165401738Y-110692380D01*
X165116023Y-110692380D01*
X165020785Y-110644761D01*
X164973166Y-110597142D01*
X151477142Y-116266666D02*
X151524761Y-116314285D01*
X151572380Y-116457142D01*
X151572380Y-116552380D01*
X151524761Y-116695238D01*
X151429523Y-116790476D01*
X151334285Y-116838095D01*
X151143809Y-116885714D01*
X151000952Y-116885714D01*
X150810476Y-116838095D01*
X150715238Y-116790476D01*
X150620000Y-116695238D01*
X150572380Y-116552380D01*
X150572380Y-116457142D01*
X150620000Y-116314285D01*
X150667619Y-116266666D01*
X150905714Y-115409523D02*
X151572380Y-115409523D01*
X150524761Y-115647619D02*
X151239047Y-115885714D01*
X151239047Y-115266666D01*
X162452380Y-109166666D02*
X161976190Y-109500000D01*
X162452380Y-109738095D02*
X161452380Y-109738095D01*
X161452380Y-109357142D01*
X161500000Y-109261904D01*
X161547619Y-109214285D01*
X161642857Y-109166666D01*
X161785714Y-109166666D01*
X161880952Y-109214285D01*
X161928571Y-109261904D01*
X161976190Y-109357142D01*
X161976190Y-109738095D01*
X161452380Y-108833333D02*
X161452380Y-108214285D01*
X161833333Y-108547619D01*
X161833333Y-108404761D01*
X161880952Y-108309523D01*
X161928571Y-108261904D01*
X162023809Y-108214285D01*
X162261904Y-108214285D01*
X162357142Y-108261904D01*
X162404761Y-108309523D01*
X162452380Y-108404761D01*
X162452380Y-108690476D01*
X162404761Y-108785714D01*
X162357142Y-108833333D01*
X131265714Y-97724380D02*
X131265714Y-96724380D01*
X131646666Y-96724380D01*
X131741904Y-96772000D01*
X131789523Y-96819619D01*
X131837142Y-96914857D01*
X131837142Y-97057714D01*
X131789523Y-97152952D01*
X131741904Y-97200571D01*
X131646666Y-97248190D01*
X131265714Y-97248190D01*
X132218095Y-97676761D02*
X132360952Y-97724380D01*
X132599047Y-97724380D01*
X132694285Y-97676761D01*
X132741904Y-97629142D01*
X132789523Y-97533904D01*
X132789523Y-97438666D01*
X132741904Y-97343428D01*
X132694285Y-97295809D01*
X132599047Y-97248190D01*
X132408571Y-97200571D01*
X132313333Y-97152952D01*
X132265714Y-97105333D01*
X132218095Y-97010095D01*
X132218095Y-96914857D01*
X132265714Y-96819619D01*
X132313333Y-96772000D01*
X132408571Y-96724380D01*
X132646666Y-96724380D01*
X132789523Y-96772000D01*
X133741904Y-97724380D02*
X133170476Y-97724380D01*
X133456190Y-97724380D02*
X133456190Y-96724380D01*
X133360952Y-96867238D01*
X133265714Y-96962476D01*
X133170476Y-97010095D01*
X169333333Y-102952380D02*
X169000000Y-102476190D01*
X168761904Y-102952380D02*
X168761904Y-101952380D01*
X169142857Y-101952380D01*
X169238095Y-102000000D01*
X169285714Y-102047619D01*
X169333333Y-102142857D01*
X169333333Y-102285714D01*
X169285714Y-102380952D01*
X169238095Y-102428571D01*
X169142857Y-102476190D01*
X168761904Y-102476190D01*
X170190476Y-102285714D02*
X170190476Y-102952380D01*
X169952380Y-101904761D02*
X169714285Y-102619047D01*
X170333333Y-102619047D01*
X157233333Y-90107142D02*
X157185714Y-90154761D01*
X157042857Y-90202380D01*
X156947619Y-90202380D01*
X156804761Y-90154761D01*
X156709523Y-90059523D01*
X156661904Y-89964285D01*
X156614285Y-89773809D01*
X156614285Y-89630952D01*
X156661904Y-89440476D01*
X156709523Y-89345238D01*
X156804761Y-89250000D01*
X156947619Y-89202380D01*
X157042857Y-89202380D01*
X157185714Y-89250000D01*
X157233333Y-89297619D01*
X158138095Y-89202380D02*
X157661904Y-89202380D01*
X157614285Y-89678571D01*
X157661904Y-89630952D01*
X157757142Y-89583333D01*
X157995238Y-89583333D01*
X158090476Y-89630952D01*
X158138095Y-89678571D01*
X158185714Y-89773809D01*
X158185714Y-90011904D01*
X158138095Y-90107142D01*
X158090476Y-90154761D01*
X157995238Y-90202380D01*
X157757142Y-90202380D01*
X157661904Y-90154761D01*
X157614285Y-90107142D01*
X179952380Y-102261904D02*
X178952380Y-102261904D01*
X179952380Y-101785714D02*
X178952380Y-101785714D01*
X179952380Y-101214285D01*
X178952380Y-101214285D01*
X179952380Y-100214285D02*
X179952380Y-100785714D01*
X179952380Y-100500000D02*
X178952380Y-100500000D01*
X179095238Y-100595238D01*
X179190476Y-100690476D01*
X179238095Y-100785714D01*
X178904761Y-99071428D02*
X180190476Y-99928571D01*
X179952380Y-98738095D02*
X178952380Y-98738095D01*
X179952380Y-98261904D02*
X178952380Y-98261904D01*
X179952380Y-97690476D01*
X178952380Y-97690476D01*
X179047619Y-97261904D02*
X179000000Y-97214285D01*
X178952380Y-97119047D01*
X178952380Y-96880952D01*
X179000000Y-96785714D01*
X179047619Y-96738095D01*
X179142857Y-96690476D01*
X179238095Y-96690476D01*
X179380952Y-96738095D01*
X179952380Y-97309523D01*
X179952380Y-96690476D01*
X133007404Y-107898380D02*
X133007404Y-106898380D01*
X133245500Y-106898380D01*
X133388357Y-106946000D01*
X133483595Y-107041238D01*
X133531214Y-107136476D01*
X133578833Y-107326952D01*
X133578833Y-107469809D01*
X133531214Y-107660285D01*
X133483595Y-107755523D01*
X133388357Y-107850761D01*
X133245500Y-107898380D01*
X133007404Y-107898380D01*
X134435976Y-107231714D02*
X134435976Y-107898380D01*
X134197880Y-106850761D02*
X133959785Y-107565047D01*
X134578833Y-107565047D01*
X160547619Y-109595238D02*
X160500000Y-109690476D01*
X160404761Y-109785714D01*
X160261904Y-109928571D01*
X160214285Y-110023809D01*
X160214285Y-110119047D01*
X160452380Y-110071428D02*
X160404761Y-110166666D01*
X160309523Y-110261904D01*
X160119047Y-110309523D01*
X159785714Y-110309523D01*
X159595238Y-110261904D01*
X159500000Y-110166666D01*
X159452380Y-110071428D01*
X159452380Y-109880952D01*
X159500000Y-109785714D01*
X159595238Y-109690476D01*
X159785714Y-109642857D01*
X160119047Y-109642857D01*
X160309523Y-109690476D01*
X160404761Y-109785714D01*
X160452380Y-109880952D01*
X160452380Y-110071428D01*
X159547619Y-109261904D02*
X159500000Y-109214285D01*
X159452380Y-109119047D01*
X159452380Y-108880952D01*
X159500000Y-108785714D01*
X159547619Y-108738095D01*
X159642857Y-108690476D01*
X159738095Y-108690476D01*
X159880952Y-108738095D01*
X160452380Y-109309523D01*
X160452380Y-108690476D01*
X174535380Y-116127166D02*
X174059190Y-116460500D01*
X174535380Y-116698595D02*
X173535380Y-116698595D01*
X173535380Y-116317642D01*
X173583000Y-116222404D01*
X173630619Y-116174785D01*
X173725857Y-116127166D01*
X173868714Y-116127166D01*
X173963952Y-116174785D01*
X174011571Y-116222404D01*
X174059190Y-116317642D01*
X174059190Y-116698595D01*
X173963952Y-115555738D02*
X173916333Y-115650976D01*
X173868714Y-115698595D01*
X173773476Y-115746214D01*
X173725857Y-115746214D01*
X173630619Y-115698595D01*
X173583000Y-115650976D01*
X173535380Y-115555738D01*
X173535380Y-115365261D01*
X173583000Y-115270023D01*
X173630619Y-115222404D01*
X173725857Y-115174785D01*
X173773476Y-115174785D01*
X173868714Y-115222404D01*
X173916333Y-115270023D01*
X173963952Y-115365261D01*
X173963952Y-115555738D01*
X174011571Y-115650976D01*
X174059190Y-115698595D01*
X174154428Y-115746214D01*
X174344904Y-115746214D01*
X174440142Y-115698595D01*
X174487761Y-115650976D01*
X174535380Y-115555738D01*
X174535380Y-115365261D01*
X174487761Y-115270023D01*
X174440142Y-115222404D01*
X174344904Y-115174785D01*
X174154428Y-115174785D01*
X174059190Y-115222404D01*
X174011571Y-115270023D01*
X173963952Y-115365261D01*
X157158095Y-115906380D02*
X157729523Y-115906380D01*
X157443809Y-116906380D02*
X157443809Y-115906380D01*
X158062857Y-116906380D02*
X158062857Y-115906380D01*
X158443809Y-115906380D01*
X158539047Y-115954000D01*
X158586666Y-116001619D01*
X158634285Y-116096857D01*
X158634285Y-116239714D01*
X158586666Y-116334952D01*
X158539047Y-116382571D01*
X158443809Y-116430190D01*
X158062857Y-116430190D01*
X159491428Y-115906380D02*
X159300952Y-115906380D01*
X159205714Y-115954000D01*
X159158095Y-116001619D01*
X159062857Y-116144476D01*
X159015238Y-116334952D01*
X159015238Y-116715904D01*
X159062857Y-116811142D01*
X159110476Y-116858761D01*
X159205714Y-116906380D01*
X159396190Y-116906380D01*
X159491428Y-116858761D01*
X159539047Y-116811142D01*
X159586666Y-116715904D01*
X159586666Y-116477809D01*
X159539047Y-116382571D01*
X159491428Y-116334952D01*
X159396190Y-116287333D01*
X159205714Y-116287333D01*
X159110476Y-116334952D01*
X159062857Y-116382571D01*
X159015238Y-116477809D01*
X164544380Y-142985213D02*
X164544380Y-142413785D01*
X165544380Y-142699499D02*
X164544380Y-142699499D01*
X165544380Y-142080451D02*
X164544380Y-142080451D01*
X164544380Y-141699499D01*
X164592000Y-141604261D01*
X164639619Y-141556642D01*
X164734857Y-141509023D01*
X164877714Y-141509023D01*
X164972952Y-141556642D01*
X165020571Y-141604261D01*
X165068190Y-141699499D01*
X165068190Y-142080451D01*
X164877714Y-140651880D02*
X165544380Y-140651880D01*
X164496761Y-140889975D02*
X165211047Y-141128070D01*
X165211047Y-140509023D01*
X166258880Y-142985213D02*
X166258880Y-142413785D01*
X167258880Y-142699499D02*
X166258880Y-142699499D01*
X167258880Y-142080451D02*
X166258880Y-142080451D01*
X166258880Y-141699499D01*
X166306500Y-141604261D01*
X166354119Y-141556642D01*
X166449357Y-141509023D01*
X166592214Y-141509023D01*
X166687452Y-141556642D01*
X166735071Y-141604261D01*
X166782690Y-141699499D01*
X166782690Y-142080451D01*
X166258880Y-140604261D02*
X166258880Y-141080451D01*
X166735071Y-141128070D01*
X166687452Y-141080451D01*
X166639833Y-140985213D01*
X166639833Y-140747118D01*
X166687452Y-140651880D01*
X166735071Y-140604261D01*
X166830309Y-140556642D01*
X167068404Y-140556642D01*
X167163642Y-140604261D01*
X167211261Y-140651880D01*
X167258880Y-140747118D01*
X167258880Y-140985213D01*
X167211261Y-141080451D01*
X167163642Y-141128070D01*
X160988380Y-142985213D02*
X160988380Y-142413785D01*
X161988380Y-142699499D02*
X160988380Y-142699499D01*
X161988380Y-142080451D02*
X160988380Y-142080451D01*
X160988380Y-141699499D01*
X161036000Y-141604261D01*
X161083619Y-141556642D01*
X161178857Y-141509023D01*
X161321714Y-141509023D01*
X161416952Y-141556642D01*
X161464571Y-141604261D01*
X161512190Y-141699499D01*
X161512190Y-142080451D01*
X161988380Y-141032832D02*
X161988380Y-140842356D01*
X161940761Y-140747118D01*
X161893142Y-140699499D01*
X161750285Y-140604261D01*
X161559809Y-140556642D01*
X161178857Y-140556642D01*
X161083619Y-140604261D01*
X161036000Y-140651880D01*
X160988380Y-140747118D01*
X160988380Y-140937594D01*
X161036000Y-141032832D01*
X161083619Y-141080451D01*
X161178857Y-141128070D01*
X161416952Y-141128070D01*
X161512190Y-141080451D01*
X161559809Y-141032832D01*
X161607428Y-140937594D01*
X161607428Y-140747118D01*
X161559809Y-140651880D01*
X161512190Y-140604261D01*
X161416952Y-140556642D01*
X165138095Y-104404380D02*
X165709523Y-104404380D01*
X165423809Y-105404380D02*
X165423809Y-104404380D01*
X166042857Y-105404380D02*
X166042857Y-104404380D01*
X166423809Y-104404380D01*
X166519047Y-104452000D01*
X166566666Y-104499619D01*
X166614285Y-104594857D01*
X166614285Y-104737714D01*
X166566666Y-104832952D01*
X166519047Y-104880571D01*
X166423809Y-104928190D01*
X166042857Y-104928190D01*
X167185714Y-104832952D02*
X167090476Y-104785333D01*
X167042857Y-104737714D01*
X166995238Y-104642476D01*
X166995238Y-104594857D01*
X167042857Y-104499619D01*
X167090476Y-104452000D01*
X167185714Y-104404380D01*
X167376190Y-104404380D01*
X167471428Y-104452000D01*
X167519047Y-104499619D01*
X167566666Y-104594857D01*
X167566666Y-104642476D01*
X167519047Y-104737714D01*
X167471428Y-104785333D01*
X167376190Y-104832952D01*
X167185714Y-104832952D01*
X167090476Y-104880571D01*
X167042857Y-104928190D01*
X166995238Y-105023428D01*
X166995238Y-105213904D01*
X167042857Y-105309142D01*
X167090476Y-105356761D01*
X167185714Y-105404380D01*
X167376190Y-105404380D01*
X167471428Y-105356761D01*
X167519047Y-105309142D01*
X167566666Y-105213904D01*
X167566666Y-105023428D01*
X167519047Y-104928190D01*
X167471428Y-104880571D01*
X167376190Y-104832952D01*
X101671786Y-147315180D02*
X101671786Y-146315180D01*
X102243215Y-147315180D01*
X102243215Y-146315180D01*
X102909881Y-146315180D02*
X103100358Y-146315180D01*
X103195596Y-146362800D01*
X103290834Y-146458038D01*
X103338453Y-146648514D01*
X103338453Y-146981847D01*
X103290834Y-147172323D01*
X103195596Y-147267561D01*
X103100358Y-147315180D01*
X102909881Y-147315180D01*
X102814643Y-147267561D01*
X102719405Y-147172323D01*
X102671786Y-146981847D01*
X102671786Y-146648514D01*
X102719405Y-146458038D01*
X102814643Y-146362800D01*
X102909881Y-146315180D01*
X104481310Y-146267561D02*
X103624167Y-147553276D01*
X104814643Y-147315180D02*
X104814643Y-146315180D01*
X105386072Y-147315180D01*
X105386072Y-146315180D01*
X106433691Y-147219942D02*
X106386072Y-147267561D01*
X106243215Y-147315180D01*
X106147977Y-147315180D01*
X106005120Y-147267561D01*
X105909881Y-147172323D01*
X105862262Y-147077085D01*
X105814643Y-146886609D01*
X105814643Y-146743752D01*
X105862262Y-146553276D01*
X105909881Y-146458038D01*
X106005120Y-146362800D01*
X106147977Y-146315180D01*
X106243215Y-146315180D01*
X106386072Y-146362800D01*
X106433691Y-146410419D01*
X107576548Y-146267561D02*
X106719405Y-147553276D01*
X108481310Y-147219942D02*
X108433691Y-147267561D01*
X108290834Y-147315180D01*
X108195596Y-147315180D01*
X108052739Y-147267561D01*
X107957500Y-147172323D01*
X107909881Y-147077085D01*
X107862262Y-146886609D01*
X107862262Y-146743752D01*
X107909881Y-146553276D01*
X107957500Y-146458038D01*
X108052739Y-146362800D01*
X108195596Y-146315180D01*
X108290834Y-146315180D01*
X108433691Y-146362800D01*
X108481310Y-146410419D01*
X109100358Y-146315180D02*
X109290834Y-146315180D01*
X109386072Y-146362800D01*
X109481310Y-146458038D01*
X109528929Y-146648514D01*
X109528929Y-146981847D01*
X109481310Y-147172323D01*
X109386072Y-147267561D01*
X109290834Y-147315180D01*
X109100358Y-147315180D01*
X109005120Y-147267561D01*
X108909881Y-147172323D01*
X108862262Y-146981847D01*
X108862262Y-146648514D01*
X108909881Y-146458038D01*
X109005120Y-146362800D01*
X109100358Y-146315180D01*
X109957500Y-147315180D02*
X109957500Y-146315180D01*
X110290834Y-147029466D01*
X110624167Y-146315180D01*
X110624167Y-147315180D01*
X112386072Y-147315180D02*
X111814643Y-147315180D01*
X112100358Y-147315180D02*
X112100358Y-146315180D01*
X112005120Y-146458038D01*
X111909881Y-146553276D01*
X111814643Y-146600895D01*
X162766380Y-143937595D02*
X162766380Y-143366166D01*
X163766380Y-143651880D02*
X162766380Y-143651880D01*
X163766380Y-143032833D02*
X162766380Y-143032833D01*
X162766380Y-142651880D01*
X162814000Y-142556642D01*
X162861619Y-142509023D01*
X162956857Y-142461404D01*
X163099714Y-142461404D01*
X163194952Y-142509023D01*
X163242571Y-142556642D01*
X163290190Y-142651880D01*
X163290190Y-143032833D01*
X163766380Y-141509023D02*
X163766380Y-142080452D01*
X163766380Y-141794738D02*
X162766380Y-141794738D01*
X162909238Y-141889976D01*
X163004476Y-141985214D01*
X163052095Y-142080452D01*
X162766380Y-140889976D02*
X162766380Y-140794738D01*
X162814000Y-140699500D01*
X162861619Y-140651880D01*
X162956857Y-140604261D01*
X163147333Y-140556642D01*
X163385428Y-140556642D01*
X163575904Y-140604261D01*
X163671142Y-140651880D01*
X163718761Y-140699500D01*
X163766380Y-140794738D01*
X163766380Y-140889976D01*
X163718761Y-140985214D01*
X163671142Y-141032833D01*
X163575904Y-141080452D01*
X163385428Y-141128071D01*
X163147333Y-141128071D01*
X162956857Y-141080452D01*
X162861619Y-141032833D01*
X162814000Y-140985214D01*
X162766380Y-140889976D01*
X151761462Y-86534286D02*
X151809081Y-86581905D01*
X151856700Y-86724762D01*
X151856700Y-86820000D01*
X151809081Y-86962858D01*
X151713843Y-87058096D01*
X151618605Y-87105715D01*
X151428129Y-87153334D01*
X151285272Y-87153334D01*
X151094796Y-87105715D01*
X150999558Y-87058096D01*
X150904320Y-86962858D01*
X150856700Y-86820000D01*
X150856700Y-86724762D01*
X150904320Y-86581905D01*
X150951939Y-86534286D01*
X150951939Y-86153334D02*
X150904320Y-86105715D01*
X150856700Y-86010477D01*
X150856700Y-85772381D01*
X150904320Y-85677143D01*
X150951939Y-85629524D01*
X151047177Y-85581905D01*
X151142415Y-85581905D01*
X151285272Y-85629524D01*
X151856700Y-86200953D01*
X151856700Y-85581905D01*
X154833333Y-94857142D02*
X154785714Y-94904761D01*
X154642857Y-94952380D01*
X154547619Y-94952380D01*
X154404761Y-94904761D01*
X154309523Y-94809523D01*
X154261904Y-94714285D01*
X154214285Y-94523809D01*
X154214285Y-94380952D01*
X154261904Y-94190476D01*
X154309523Y-94095238D01*
X154404761Y-94000000D01*
X154547619Y-93952380D01*
X154642857Y-93952380D01*
X154785714Y-94000000D01*
X154833333Y-94047619D01*
X155166666Y-93952380D02*
X155785714Y-93952380D01*
X155452380Y-94333333D01*
X155595238Y-94333333D01*
X155690476Y-94380952D01*
X155738095Y-94428571D01*
X155785714Y-94523809D01*
X155785714Y-94761904D01*
X155738095Y-94857142D01*
X155690476Y-94904761D01*
X155595238Y-94952380D01*
X155309523Y-94952380D01*
X155214285Y-94904761D01*
X155166666Y-94857142D01*
X114052380Y-90821428D02*
X115052380Y-90488095D01*
X114052380Y-90154761D01*
X115052380Y-89392857D02*
X114528571Y-89392857D01*
X114433333Y-89440476D01*
X114385714Y-89535714D01*
X114385714Y-89726190D01*
X114433333Y-89821428D01*
X115004761Y-89392857D02*
X115052380Y-89488095D01*
X115052380Y-89726190D01*
X115004761Y-89821428D01*
X114909523Y-89869047D01*
X114814285Y-89869047D01*
X114719047Y-89821428D01*
X114671428Y-89726190D01*
X114671428Y-89488095D01*
X114623809Y-89392857D01*
X115052380Y-88916666D02*
X114385714Y-88916666D01*
X114576190Y-88916666D02*
X114480952Y-88869047D01*
X114433333Y-88821428D01*
X114385714Y-88726190D01*
X114385714Y-88630952D01*
X115052380Y-87773809D02*
X115052380Y-88345238D01*
X115052380Y-88059523D02*
X114052380Y-88059523D01*
X114195238Y-88154761D01*
X114290476Y-88250000D01*
X114338095Y-88345238D01*
X173938095Y-90604380D02*
X174509523Y-90604380D01*
X174223809Y-91604380D02*
X174223809Y-90604380D01*
X174842857Y-91604380D02*
X174842857Y-90604380D01*
X175223809Y-90604380D01*
X175319047Y-90652000D01*
X175366666Y-90699619D01*
X175414285Y-90794857D01*
X175414285Y-90937714D01*
X175366666Y-91032952D01*
X175319047Y-91080571D01*
X175223809Y-91128190D01*
X174842857Y-91128190D01*
X175747619Y-90604380D02*
X176414285Y-90604380D01*
X175985714Y-91604380D01*
X117582346Y-147348200D02*
X117582346Y-146348200D01*
X118153775Y-147348200D01*
X118153775Y-146348200D01*
X118820441Y-146348200D02*
X119010918Y-146348200D01*
X119106156Y-146395820D01*
X119201394Y-146491058D01*
X119249013Y-146681534D01*
X119249013Y-147014867D01*
X119201394Y-147205343D01*
X119106156Y-147300581D01*
X119010918Y-147348200D01*
X118820441Y-147348200D01*
X118725203Y-147300581D01*
X118629965Y-147205343D01*
X118582346Y-147014867D01*
X118582346Y-146681534D01*
X118629965Y-146491058D01*
X118725203Y-146395820D01*
X118820441Y-146348200D01*
X120391870Y-146300581D02*
X119534727Y-147586296D01*
X120725203Y-147348200D02*
X120725203Y-146348200D01*
X121296632Y-147348200D01*
X121296632Y-146348200D01*
X122344251Y-147252962D02*
X122296632Y-147300581D01*
X122153775Y-147348200D01*
X122058537Y-147348200D01*
X121915680Y-147300581D01*
X121820441Y-147205343D01*
X121772822Y-147110105D01*
X121725203Y-146919629D01*
X121725203Y-146776772D01*
X121772822Y-146586296D01*
X121820441Y-146491058D01*
X121915680Y-146395820D01*
X122058537Y-146348200D01*
X122153775Y-146348200D01*
X122296632Y-146395820D01*
X122344251Y-146443439D01*
X123487108Y-146300581D02*
X122629965Y-147586296D01*
X124391870Y-147252962D02*
X124344251Y-147300581D01*
X124201394Y-147348200D01*
X124106156Y-147348200D01*
X123963299Y-147300581D01*
X123868060Y-147205343D01*
X123820441Y-147110105D01*
X123772822Y-146919629D01*
X123772822Y-146776772D01*
X123820441Y-146586296D01*
X123868060Y-146491058D01*
X123963299Y-146395820D01*
X124106156Y-146348200D01*
X124201394Y-146348200D01*
X124344251Y-146395820D01*
X124391870Y-146443439D01*
X125010918Y-146348200D02*
X125201394Y-146348200D01*
X125296632Y-146395820D01*
X125391870Y-146491058D01*
X125439489Y-146681534D01*
X125439489Y-147014867D01*
X125391870Y-147205343D01*
X125296632Y-147300581D01*
X125201394Y-147348200D01*
X125010918Y-147348200D01*
X124915680Y-147300581D01*
X124820441Y-147205343D01*
X124772822Y-147014867D01*
X124772822Y-146681534D01*
X124820441Y-146491058D01*
X124915680Y-146395820D01*
X125010918Y-146348200D01*
X125868060Y-147348200D02*
X125868060Y-146348200D01*
X126201394Y-147062486D01*
X126534727Y-146348200D01*
X126534727Y-147348200D01*
X127725203Y-146443439D02*
X127772822Y-146395820D01*
X127868060Y-146348200D01*
X128106156Y-146348200D01*
X128201394Y-146395820D01*
X128249013Y-146443439D01*
X128296632Y-146538677D01*
X128296632Y-146633915D01*
X128249013Y-146776772D01*
X127677584Y-147348200D01*
X128296632Y-147348200D01*
X134036300Y-146332320D02*
X133941061Y-146284700D01*
X133798204Y-146284700D01*
X133655347Y-146332320D01*
X133560109Y-146427558D01*
X133512490Y-146522796D01*
X133464871Y-146713272D01*
X133464871Y-146856129D01*
X133512490Y-147046605D01*
X133560109Y-147141843D01*
X133655347Y-147237081D01*
X133798204Y-147284700D01*
X133893442Y-147284700D01*
X134036300Y-147237081D01*
X134083919Y-147189462D01*
X134083919Y-146856129D01*
X133893442Y-146856129D01*
X134512490Y-147284700D02*
X134512490Y-146284700D01*
X135083919Y-147284700D01*
X135083919Y-146284700D01*
X135560109Y-147284700D02*
X135560109Y-146284700D01*
X135798204Y-146284700D01*
X135941061Y-146332320D01*
X136036300Y-146427558D01*
X136083919Y-146522796D01*
X136131538Y-146713272D01*
X136131538Y-146856129D01*
X136083919Y-147046605D01*
X136036300Y-147141843D01*
X135941061Y-147237081D01*
X135798204Y-147284700D01*
X135560109Y-147284700D01*
X137274395Y-146237081D02*
X136417252Y-147522796D01*
X137512490Y-146284700D02*
X138131538Y-146284700D01*
X137798204Y-146665653D01*
X137941061Y-146665653D01*
X138036300Y-146713272D01*
X138083919Y-146760891D01*
X138131538Y-146856129D01*
X138131538Y-147094224D01*
X138083919Y-147189462D01*
X138036300Y-147237081D01*
X137941061Y-147284700D01*
X137655347Y-147284700D01*
X137560109Y-147237081D01*
X137512490Y-147189462D01*
X138464871Y-146618034D02*
X138702966Y-147284700D01*
X138941061Y-146618034D01*
X139226776Y-146284700D02*
X139845823Y-146284700D01*
X139512490Y-146665653D01*
X139655347Y-146665653D01*
X139750585Y-146713272D01*
X139798204Y-146760891D01*
X139845823Y-146856129D01*
X139845823Y-147094224D01*
X139798204Y-147189462D01*
X139750585Y-147237081D01*
X139655347Y-147284700D01*
X139369633Y-147284700D01*
X139274395Y-147237081D01*
X139226776Y-147189462D01*
X140988680Y-146237081D02*
X140131538Y-147522796D01*
X141798204Y-146284700D02*
X141322014Y-146284700D01*
X141274395Y-146760891D01*
X141322014Y-146713272D01*
X141417252Y-146665653D01*
X141655347Y-146665653D01*
X141750585Y-146713272D01*
X141798204Y-146760891D01*
X141845823Y-146856129D01*
X141845823Y-147094224D01*
X141798204Y-147189462D01*
X141750585Y-147237081D01*
X141655347Y-147284700D01*
X141417252Y-147284700D01*
X141322014Y-147237081D01*
X141274395Y-147189462D01*
X142179157Y-146618034D02*
X142417252Y-147284700D01*
X142655347Y-146618034D01*
X113913571Y-103122333D02*
X113913571Y-103455666D01*
X114437380Y-103455666D02*
X113437380Y-103455666D01*
X113437380Y-102979476D01*
X113532619Y-102646142D02*
X113485000Y-102598523D01*
X113437380Y-102503285D01*
X113437380Y-102265190D01*
X113485000Y-102169952D01*
X113532619Y-102122333D01*
X113627857Y-102074714D01*
X113723095Y-102074714D01*
X113865952Y-102122333D01*
X114437380Y-102693761D01*
X114437380Y-102074714D01*
X170333333Y-86452380D02*
X170000000Y-85976190D01*
X169761904Y-86452380D02*
X169761904Y-85452380D01*
X170142857Y-85452380D01*
X170238095Y-85500000D01*
X170285714Y-85547619D01*
X170333333Y-85642857D01*
X170333333Y-85785714D01*
X170285714Y-85880952D01*
X170238095Y-85928571D01*
X170142857Y-85976190D01*
X169761904Y-85976190D01*
X171285714Y-86452380D02*
X170714285Y-86452380D01*
X171000000Y-86452380D02*
X171000000Y-85452380D01*
X170904761Y-85595238D01*
X170809523Y-85690476D01*
X170714285Y-85738095D01*
X108261904Y-116452380D02*
X108261904Y-115452380D01*
X108833333Y-116452380D02*
X108404761Y-115880952D01*
X108833333Y-115452380D02*
X108261904Y-116023809D01*
X109214285Y-115547619D02*
X109261904Y-115500000D01*
X109357142Y-115452380D01*
X109595238Y-115452380D01*
X109690476Y-115500000D01*
X109738095Y-115547619D01*
X109785714Y-115642857D01*
X109785714Y-115738095D01*
X109738095Y-115880952D01*
X109166666Y-116452380D01*
X109785714Y-116452380D01*
X159826404Y-95406380D02*
X159826404Y-94406380D01*
X160064500Y-94406380D01*
X160207357Y-94454000D01*
X160302595Y-94549238D01*
X160350214Y-94644476D01*
X160397833Y-94834952D01*
X160397833Y-94977809D01*
X160350214Y-95168285D01*
X160302595Y-95263523D01*
X160207357Y-95358761D01*
X160064500Y-95406380D01*
X159826404Y-95406380D01*
X161350214Y-95406380D02*
X160778785Y-95406380D01*
X161064500Y-95406380D02*
X161064500Y-94406380D01*
X160969261Y-94549238D01*
X160874023Y-94644476D01*
X160778785Y-94692095D01*
X118133904Y-112720380D02*
X118133904Y-111720380D01*
X118372000Y-111720380D01*
X118514857Y-111768000D01*
X118610095Y-111863238D01*
X118657714Y-111958476D01*
X118705333Y-112148952D01*
X118705333Y-112291809D01*
X118657714Y-112482285D01*
X118610095Y-112577523D01*
X118514857Y-112672761D01*
X118372000Y-112720380D01*
X118133904Y-112720380D01*
X119038666Y-111720380D02*
X119705333Y-111720380D01*
X119276761Y-112720380D01*
X126021815Y-114221520D02*
X126021815Y-113221520D01*
X126593243Y-114221520D02*
X126164672Y-113650092D01*
X126593243Y-113221520D02*
X126021815Y-113792949D01*
X177738095Y-141857142D02*
X177690476Y-141904761D01*
X177547619Y-141952380D01*
X177452380Y-141952380D01*
X177309523Y-141904761D01*
X177214285Y-141809523D01*
X177166666Y-141714285D01*
X177119047Y-141523809D01*
X177119047Y-141380952D01*
X177166666Y-141190476D01*
X177214285Y-141095238D01*
X177309523Y-141000000D01*
X177452380Y-140952380D01*
X177547619Y-140952380D01*
X177690476Y-141000000D01*
X177738095Y-141047619D01*
X178357142Y-140952380D02*
X178547619Y-140952380D01*
X178642857Y-141000000D01*
X178738095Y-141095238D01*
X178785714Y-141285714D01*
X178785714Y-141619047D01*
X178738095Y-141809523D01*
X178642857Y-141904761D01*
X178547619Y-141952380D01*
X178357142Y-141952380D01*
X178261904Y-141904761D01*
X178166666Y-141809523D01*
X178119047Y-141619047D01*
X178119047Y-141285714D01*
X178166666Y-141095238D01*
X178261904Y-141000000D01*
X178357142Y-140952380D01*
X179214285Y-141952380D02*
X179214285Y-140952380D01*
X179785714Y-141952380D01*
X179785714Y-140952380D01*
X180261904Y-141952380D02*
X180261904Y-140952380D01*
X180833333Y-141952380D01*
X180833333Y-140952380D01*
X145930380Y-111297904D02*
X146739904Y-111297904D01*
X146835142Y-111250285D01*
X146882761Y-111202666D01*
X146930380Y-111107428D01*
X146930380Y-110916952D01*
X146882761Y-110821714D01*
X146835142Y-110774095D01*
X146739904Y-110726476D01*
X145930380Y-110726476D01*
X146930380Y-109726476D02*
X146930380Y-110297904D01*
X146930380Y-110012190D02*
X145930380Y-110012190D01*
X146073238Y-110107428D01*
X146168476Y-110202666D01*
X146216095Y-110297904D01*
X170833333Y-91952380D02*
X170500000Y-91476190D01*
X170261904Y-91952380D02*
X170261904Y-90952380D01*
X170642857Y-90952380D01*
X170738095Y-91000000D01*
X170785714Y-91047619D01*
X170833333Y-91142857D01*
X170833333Y-91285714D01*
X170785714Y-91380952D01*
X170738095Y-91428571D01*
X170642857Y-91476190D01*
X170261904Y-91476190D01*
X171214285Y-91047619D02*
X171261904Y-91000000D01*
X171357142Y-90952380D01*
X171595238Y-90952380D01*
X171690476Y-91000000D01*
X171738095Y-91047619D01*
X171785714Y-91142857D01*
X171785714Y-91238095D01*
X171738095Y-91380952D01*
X171166666Y-91952380D01*
X171785714Y-91952380D01*
X146761904Y-119952380D02*
X146761904Y-118952380D01*
X147333333Y-119952380D02*
X146904761Y-119380952D01*
X147333333Y-118952380D02*
X146761904Y-119523809D01*
X148285714Y-119952380D02*
X147714285Y-119952380D01*
X148000000Y-119952380D02*
X148000000Y-118952380D01*
X147904761Y-119095238D01*
X147809523Y-119190476D01*
X147714285Y-119238095D01*
X151884640Y-104052595D02*
X150884640Y-104052595D01*
X150884640Y-103814500D01*
X150932260Y-103671642D01*
X151027498Y-103576404D01*
X151122736Y-103528785D01*
X151313212Y-103481166D01*
X151456069Y-103481166D01*
X151646545Y-103528785D01*
X151741783Y-103576404D01*
X151837021Y-103671642D01*
X151884640Y-103814500D01*
X151884640Y-104052595D01*
X150979879Y-103100214D02*
X150932260Y-103052595D01*
X150884640Y-102957357D01*
X150884640Y-102719261D01*
X150932260Y-102624023D01*
X150979879Y-102576404D01*
X151075117Y-102528785D01*
X151170355Y-102528785D01*
X151313212Y-102576404D01*
X151884640Y-103147833D01*
X151884640Y-102528785D01*
X132865904Y-112720380D02*
X132865904Y-111720380D01*
X133104000Y-111720380D01*
X133246857Y-111768000D01*
X133342095Y-111863238D01*
X133389714Y-111958476D01*
X133437333Y-112148952D01*
X133437333Y-112291809D01*
X133389714Y-112482285D01*
X133342095Y-112577523D01*
X133246857Y-112672761D01*
X133104000Y-112720380D01*
X132865904Y-112720380D01*
X134294476Y-111720380D02*
X134104000Y-111720380D01*
X134008761Y-111768000D01*
X133961142Y-111815619D01*
X133865904Y-111958476D01*
X133818285Y-112148952D01*
X133818285Y-112529904D01*
X133865904Y-112625142D01*
X133913523Y-112672761D01*
X134008761Y-112720380D01*
X134199238Y-112720380D01*
X134294476Y-112672761D01*
X134342095Y-112625142D01*
X134389714Y-112529904D01*
X134389714Y-112291809D01*
X134342095Y-112196571D01*
X134294476Y-112148952D01*
X134199238Y-112101333D01*
X134008761Y-112101333D01*
X133913523Y-112148952D01*
X133865904Y-112196571D01*
X133818285Y-112291809D01*
X141470095Y-114244380D02*
X141470095Y-113244380D01*
X142041523Y-114244380D02*
X141612952Y-113672952D01*
X142041523Y-113244380D02*
X141470095Y-113815809D01*
X95732380Y-91525333D02*
X96446666Y-91525333D01*
X96589523Y-91572952D01*
X96684761Y-91668190D01*
X96732380Y-91811047D01*
X96732380Y-91906285D01*
X96732380Y-90525333D02*
X96732380Y-91096761D01*
X96732380Y-90811047D02*
X95732380Y-90811047D01*
X95875238Y-90906285D01*
X95970476Y-91001523D01*
X96018095Y-91096761D01*
X176547619Y-109452380D02*
X176214285Y-108976190D01*
X175976190Y-109452380D02*
X175976190Y-108452380D01*
X176357142Y-108452380D01*
X176452380Y-108500000D01*
X176500000Y-108547619D01*
X176547619Y-108642857D01*
X176547619Y-108785714D01*
X176500000Y-108880952D01*
X176452380Y-108928571D01*
X176357142Y-108976190D01*
X175976190Y-108976190D01*
X176976190Y-108928571D02*
X177309523Y-108928571D01*
X177452380Y-109452380D02*
X176976190Y-109452380D01*
X176976190Y-108452380D01*
X177452380Y-108452380D01*
X177833333Y-109404761D02*
X177976190Y-109452380D01*
X178214285Y-109452380D01*
X178309523Y-109404761D01*
X178357142Y-109357142D01*
X178404761Y-109261904D01*
X178404761Y-109166666D01*
X178357142Y-109071428D01*
X178309523Y-109023809D01*
X178214285Y-108976190D01*
X178023809Y-108928571D01*
X177928571Y-108880952D01*
X177880952Y-108833333D01*
X177833333Y-108738095D01*
X177833333Y-108642857D01*
X177880952Y-108547619D01*
X177928571Y-108500000D01*
X178023809Y-108452380D01*
X178261904Y-108452380D01*
X178404761Y-108500000D01*
X178833333Y-108928571D02*
X179166666Y-108928571D01*
X179309523Y-109452380D02*
X178833333Y-109452380D01*
X178833333Y-108452380D01*
X179309523Y-108452380D01*
X179595238Y-108452380D02*
X180166666Y-108452380D01*
X179880952Y-109452380D02*
X179880952Y-108452380D01*
X95928571Y-115083333D02*
X95928571Y-115416666D01*
X96452380Y-115416666D02*
X95452380Y-115416666D01*
X95452380Y-114940476D01*
X96452380Y-114035714D02*
X96452380Y-114607142D01*
X96452380Y-114321428D02*
X95452380Y-114321428D01*
X95595238Y-114416666D01*
X95690476Y-114511904D01*
X95738095Y-114607142D01*
D12*
X174985000Y-136182000D02*
X167365000Y-136182000D01*
X167365000Y-119942000D02*
X167365000Y-119332000D01*
X150745000Y-136182000D02*
X150745000Y-134062000D01*
X151365000Y-136182000D02*
X150745000Y-136182000D01*
X174985000Y-119942000D02*
X174985000Y-136182000D01*
X150745000Y-122062000D02*
X150745000Y-119942000D01*
X150745000Y-119942000D02*
X151365000Y-119942000D01*
X167365000Y-119942000D02*
X174985000Y-119942000D01*
X124187564Y-108356000D02*
X122983436Y-108356000D01*
X124187564Y-110176000D02*
X122983436Y-110176000D01*
X156394564Y-107040000D02*
X155190436Y-107040000D01*
X156394564Y-108860000D02*
X155190436Y-108860000D01*
X139681564Y-110176000D02*
X138477436Y-110176000D01*
X139681564Y-108356000D02*
X138477436Y-108356000D01*
X165553000Y-96787064D02*
X165553000Y-95582936D01*
X163733000Y-96787064D02*
X163733000Y-95582936D01*
X161093564Y-100986000D02*
X159889436Y-100986000D01*
X161093564Y-99166000D02*
X159889436Y-99166000D01*
X155121564Y-142180000D02*
X153917436Y-142180000D01*
X155121564Y-140360000D02*
X153917436Y-140360000D01*
X153717436Y-137820000D02*
X154921564Y-137820000D01*
X153717436Y-139640000D02*
X154921564Y-139640000D01*
X155986000Y-104443564D02*
X155986000Y-103239436D01*
X157806000Y-104443564D02*
X157806000Y-103239436D01*
X159330000Y-140692564D02*
X159330000Y-139488436D01*
X157510000Y-140692564D02*
X157510000Y-139488436D01*
X167204000Y-115431436D02*
X167204000Y-116635564D01*
X165384000Y-115431436D02*
X165384000Y-116635564D01*
X165072000Y-92665000D02*
X164413000Y-92665000D01*
X162333000Y-91425000D02*
X160893000Y-91425000D01*
X165408000Y-92305000D02*
X164413000Y-92305000D01*
X165916000Y-91144000D02*
X164413000Y-91144000D01*
X165683000Y-91865000D02*
X164413000Y-91865000D01*
X165942000Y-90944000D02*
X164413000Y-90944000D01*
X165721000Y-91785000D02*
X164413000Y-91785000D01*
X162333000Y-91264000D02*
X160853000Y-91264000D01*
X162333000Y-91465000D02*
X160905000Y-91465000D01*
X165951000Y-90824000D02*
X160795000Y-90824000D01*
X162333000Y-91625000D02*
X160959000Y-91625000D01*
X165771000Y-91665000D02*
X164413000Y-91665000D01*
X164551000Y-93025000D02*
X162195000Y-93025000D01*
X165841000Y-91465000D02*
X164413000Y-91465000D01*
X164050000Y-93225000D02*
X162696000Y-93225000D01*
X165344000Y-92385000D02*
X164413000Y-92385000D01*
X162333000Y-91905000D02*
X161083000Y-91905000D01*
X162333000Y-91344000D02*
X160872000Y-91344000D01*
X164756000Y-92905000D02*
X164413000Y-92905000D01*
X162333000Y-91224000D02*
X160845000Y-91224000D01*
X162333000Y-92585000D02*
X161588000Y-92585000D01*
X165495000Y-92185000D02*
X164413000Y-92185000D01*
X165738000Y-91745000D02*
X164413000Y-91745000D01*
X162333000Y-91545000D02*
X160931000Y-91545000D01*
X162333000Y-92705000D02*
X161720000Y-92705000D01*
X162333000Y-91144000D02*
X160830000Y-91144000D01*
X164178000Y-93185000D02*
X162568000Y-93185000D01*
X162333000Y-92745000D02*
X161768000Y-92745000D01*
X165274000Y-92465000D02*
X164413000Y-92465000D01*
X165949000Y-90864000D02*
X160797000Y-90864000D01*
X164978000Y-92745000D02*
X164413000Y-92745000D01*
X165901000Y-91224000D02*
X164413000Y-91224000D01*
X162333000Y-92825000D02*
X161873000Y-92825000D01*
X165787000Y-91625000D02*
X164413000Y-91625000D01*
X162333000Y-92625000D02*
X161630000Y-92625000D01*
X165934000Y-91024000D02*
X164413000Y-91024000D01*
X165438000Y-92265000D02*
X164413000Y-92265000D01*
X162333000Y-92665000D02*
X161674000Y-92665000D01*
X165953000Y-90744000D02*
X160793000Y-90744000D01*
X165755000Y-91705000D02*
X164413000Y-91705000D01*
X165828000Y-91505000D02*
X164413000Y-91505000D01*
X162333000Y-91865000D02*
X161063000Y-91865000D01*
X162333000Y-92225000D02*
X161278000Y-92225000D01*
X165946000Y-90904000D02*
X160800000Y-90904000D01*
X162333000Y-91384000D02*
X160882000Y-91384000D01*
X164288000Y-93145000D02*
X162458000Y-93145000D01*
X162333000Y-90984000D02*
X160808000Y-90984000D01*
X165468000Y-92225000D02*
X164413000Y-92225000D01*
X162333000Y-90944000D02*
X160804000Y-90944000D01*
X164816000Y-92865000D02*
X164413000Y-92865000D01*
X162333000Y-91745000D02*
X161008000Y-91745000D01*
X164692000Y-92945000D02*
X164413000Y-92945000D01*
X165864000Y-91384000D02*
X164413000Y-91384000D01*
X162333000Y-92265000D02*
X161308000Y-92265000D01*
X162333000Y-91024000D02*
X160812000Y-91024000D01*
X164848000Y-87899225D02*
X164848000Y-88399225D01*
X162333000Y-92505000D02*
X161509000Y-92505000D01*
X165377000Y-92345000D02*
X164413000Y-92345000D01*
X165938000Y-90984000D02*
X164413000Y-90984000D01*
X165801000Y-91585000D02*
X164413000Y-91585000D01*
X165310000Y-92425000D02*
X164413000Y-92425000D01*
X165116000Y-92625000D02*
X164413000Y-92625000D01*
X162333000Y-91104000D02*
X160823000Y-91104000D01*
X162333000Y-91505000D02*
X160918000Y-91505000D01*
X165953000Y-90704000D02*
X160793000Y-90704000D01*
X162333000Y-92345000D02*
X161369000Y-92345000D01*
X165522000Y-92145000D02*
X164413000Y-92145000D01*
X162333000Y-92905000D02*
X161990000Y-92905000D01*
X165641000Y-91945000D02*
X164413000Y-91945000D01*
X162333000Y-92865000D02*
X161930000Y-92865000D01*
X163657000Y-93305000D02*
X163089000Y-93305000D01*
X165929000Y-91064000D02*
X164413000Y-91064000D01*
X165597000Y-92025000D02*
X164413000Y-92025000D01*
X162333000Y-91064000D02*
X160817000Y-91064000D01*
X165620000Y-91985000D02*
X164413000Y-91985000D01*
X162333000Y-92065000D02*
X161173000Y-92065000D01*
X165884000Y-91304000D02*
X164413000Y-91304000D01*
X165098000Y-88149225D02*
X164598000Y-88149225D01*
X165548000Y-92105000D02*
X164413000Y-92105000D01*
X162333000Y-92785000D02*
X161819000Y-92785000D01*
X162333000Y-91945000D02*
X161105000Y-91945000D01*
X165237000Y-92505000D02*
X164413000Y-92505000D01*
X162333000Y-91304000D02*
X160862000Y-91304000D01*
X164927000Y-92785000D02*
X164413000Y-92785000D01*
X165663000Y-91905000D02*
X164413000Y-91905000D01*
X162333000Y-92425000D02*
X161436000Y-92425000D01*
X165815000Y-91545000D02*
X164413000Y-91545000D01*
X162333000Y-91785000D02*
X161025000Y-91785000D01*
X162333000Y-92945000D02*
X162054000Y-92945000D01*
X165893000Y-91264000D02*
X164413000Y-91264000D01*
X165026000Y-92705000D02*
X164413000Y-92705000D01*
X163891000Y-93265000D02*
X162855000Y-93265000D01*
X164624000Y-92985000D02*
X164413000Y-92985000D01*
X162333000Y-91705000D02*
X160991000Y-91705000D01*
X162333000Y-92985000D02*
X162122000Y-92985000D01*
X162333000Y-92385000D02*
X161402000Y-92385000D01*
X162333000Y-91585000D02*
X160945000Y-91585000D01*
X162333000Y-92145000D02*
X161224000Y-92145000D01*
X164873000Y-92825000D02*
X164413000Y-92825000D01*
X165853000Y-91425000D02*
X164413000Y-91425000D01*
X162333000Y-92105000D02*
X161198000Y-92105000D01*
X162333000Y-92025000D02*
X161149000Y-92025000D01*
X165909000Y-91184000D02*
X164413000Y-91184000D01*
X162333000Y-92465000D02*
X161472000Y-92465000D01*
X162333000Y-92185000D02*
X161251000Y-92185000D01*
X162333000Y-92305000D02*
X161338000Y-92305000D01*
X164384000Y-93105000D02*
X162362000Y-93105000D01*
X162333000Y-91985000D02*
X161126000Y-91985000D01*
X165573000Y-92065000D02*
X164413000Y-92065000D01*
X165702000Y-91825000D02*
X164413000Y-91825000D01*
X162333000Y-91665000D02*
X160975000Y-91665000D01*
X165199000Y-92545000D02*
X164413000Y-92545000D01*
X165952000Y-90784000D02*
X160794000Y-90784000D01*
X165923000Y-91104000D02*
X164413000Y-91104000D01*
X164471000Y-93065000D02*
X162275000Y-93065000D01*
X165874000Y-91344000D02*
X164413000Y-91344000D01*
X162333000Y-91825000D02*
X161044000Y-91825000D01*
X165158000Y-92585000D02*
X164413000Y-92585000D01*
X162333000Y-91184000D02*
X160837000Y-91184000D01*
X162333000Y-92545000D02*
X161547000Y-92545000D01*
X165993000Y-90704000D02*
G75*
G03*
X165993000Y-90704000I-2620000J0D01*
G01*
X168832000Y-100813000D02*
X168832000Y-99883000D01*
X168832000Y-100813000D02*
X167372000Y-100813000D01*
X168832000Y-97653000D02*
X166672000Y-97653000D01*
X168832000Y-97653000D02*
X168832000Y-98583000D01*
X168686000Y-115304436D02*
X168686000Y-116508564D01*
X170506000Y-115304436D02*
X170506000Y-116508564D01*
X160448436Y-102260000D02*
X161652564Y-102260000D01*
X160448436Y-104080000D02*
X161652564Y-104080000D01*
X168110000Y-94614564D02*
X168110000Y-93410436D01*
X166290000Y-94614564D02*
X166290000Y-93410436D01*
X119851500Y-108131000D02*
X115791500Y-108131000D01*
X115791500Y-110401000D02*
X119851500Y-110401000D01*
X115791500Y-108131000D02*
X115791500Y-110401000D01*
X166406500Y-110925000D02*
X162346500Y-110925000D01*
X162346500Y-110925000D02*
X162346500Y-113195000D01*
X162346500Y-113195000D02*
X166406500Y-113195000D01*
X148390000Y-115497936D02*
X148390000Y-116702064D01*
X150210000Y-115497936D02*
X150210000Y-116702064D01*
X162971000Y-106468436D02*
X162971000Y-107672564D01*
X164791000Y-106468436D02*
X164791000Y-107672564D01*
D10*
X149480000Y-106372000D02*
X149480000Y-86372000D01*
X149480000Y-86372000D02*
X149480000Y-86172000D01*
X115480000Y-86172000D02*
X115480000Y-106372000D01*
X115480000Y-106372000D02*
X149480000Y-106372000D01*
X149480000Y-86172000D02*
X115480000Y-86172000D01*
D12*
X166802064Y-102290000D02*
X165597936Y-102290000D01*
X166802064Y-104110000D02*
X165597936Y-104110000D01*
X160020000Y-86195000D02*
X160020000Y-85880000D01*
X160020000Y-88620000D02*
X154780000Y-88620000D01*
X160020000Y-85880000D02*
X154780000Y-85880000D01*
X160020000Y-88620000D02*
X160020000Y-88305000D01*
X154780000Y-86195000D02*
X154780000Y-85880000D01*
X154780000Y-88620000D02*
X154780000Y-88305000D01*
X176253000Y-103275000D02*
X176207000Y-103228000D01*
X171024000Y-94200000D02*
X170284000Y-94200000D01*
X176459000Y-103070000D02*
X176423000Y-103035000D01*
X170284000Y-94200000D02*
X170284000Y-94700000D01*
X180445000Y-94440000D02*
X180445000Y-104560000D01*
X170524000Y-94440000D02*
X170524000Y-104560000D01*
X174161000Y-100773000D02*
X174115000Y-100726000D01*
X180445000Y-94440000D02*
X170524000Y-94440000D01*
X172584000Y-94440000D02*
X172584000Y-104560000D01*
X171084000Y-94440000D02*
X171084000Y-104560000D01*
X180445000Y-104560000D02*
X170524000Y-104560000D01*
X177485000Y-94440000D02*
X177485000Y-104560000D01*
X173945000Y-100966000D02*
X173910000Y-100931000D01*
X173504000Y-97000000D02*
G75*
G03*
X173649244Y-97683318I1679992J-1D01*
G01*
X175868000Y-95465000D02*
G75*
G03*
X174500958Y-95464573I-684001J-1534993D01*
G01*
X176719000Y-97684000D02*
G75*
G03*
X176719427Y-96316958I-1534993J684001D01*
G01*
X173649000Y-96316000D02*
G75*
G03*
X173503747Y-97028805I1535001J-683999D01*
G01*
X174500000Y-98535000D02*
G75*
G03*
X175867042Y-98535427I684001J1534993D01*
G01*
X176864000Y-102000000D02*
G75*
G03*
X176864000Y-102000000I-1680000J0D01*
G01*
X131285500Y-108131000D02*
X131285500Y-110401000D01*
X135345500Y-108131000D02*
X131285500Y-108131000D01*
X131285500Y-110401000D02*
X135345500Y-110401000D01*
X161661000Y-107805000D02*
X161661000Y-105645000D01*
X158501000Y-107805000D02*
X158501000Y-106345000D01*
X158501000Y-107805000D02*
X159431000Y-107805000D01*
X161661000Y-107805000D02*
X160731000Y-107805000D01*
X171353000Y-115358436D02*
X171353000Y-116562564D01*
X173173000Y-115358436D02*
X173173000Y-116562564D01*
X159120000Y-117902000D02*
G75*
G03*
X159120000Y-117902000I-700000J0D01*
G01*
X165216000Y-139365000D02*
G75*
G03*
X165216000Y-139365000I-700000J0D01*
G01*
X166994000Y-138222000D02*
G75*
G03*
X166994000Y-138222000I-700000J0D01*
G01*
X161914000Y-139365000D02*
G75*
G03*
X161914000Y-139365000I-700000J0D01*
G01*
X167100000Y-106400000D02*
G75*
G03*
X167100000Y-106400000I-700000J0D01*
G01*
X115210000Y-139940000D02*
X100090000Y-139940000D01*
X101375000Y-143609000D02*
X101422000Y-143563000D01*
X100090000Y-147801000D02*
X100090000Y-137880000D01*
X106580000Y-143815000D02*
X106615000Y-143779000D01*
X115210000Y-147801000D02*
X115210000Y-137880000D01*
X101580000Y-143815000D02*
X101615000Y-143779000D01*
X115450000Y-137640000D02*
X114950000Y-137640000D01*
X106375000Y-143609000D02*
X106422000Y-143563000D01*
X103684000Y-141301000D02*
X103719000Y-141266000D01*
X115450000Y-138380000D02*
X115450000Y-137640000D01*
X115210000Y-144841000D02*
X100090000Y-144841000D01*
X115210000Y-138440000D02*
X100090000Y-138440000D01*
X103877000Y-141517000D02*
X103924000Y-141471000D01*
X115210000Y-137880000D02*
X100090000Y-137880000D01*
X108684000Y-141301000D02*
X108719000Y-141266000D01*
X115210000Y-147801000D02*
X100090000Y-147801000D01*
X108877000Y-141517000D02*
X108924000Y-141471000D01*
X111115000Y-141856000D02*
G75*
G03*
X111114573Y-143223042I1534993J-684001D01*
G01*
X111966000Y-144075000D02*
G75*
G03*
X113333042Y-144075427I684001J1534993D01*
G01*
X113334000Y-141005000D02*
G75*
G03*
X112621195Y-140859747I-683999J-1535001D01*
G01*
X114185000Y-143224000D02*
G75*
G03*
X114185427Y-141856958I-1534993J684001D01*
G01*
X112650000Y-140860000D02*
G75*
G03*
X111966682Y-141005244I-1J-1679992D01*
G01*
X109330000Y-142540000D02*
G75*
G03*
X109330000Y-142540000I-1680000J0D01*
G01*
X104330000Y-142540000D02*
G75*
G03*
X104330000Y-142540000I-1680000J0D01*
G01*
X163565000Y-138222000D02*
G75*
G03*
X163565000Y-138222000I-700000J0D01*
G01*
X150065000Y-88572000D02*
X150380000Y-88572000D01*
X152805000Y-93812000D02*
X152805000Y-88572000D01*
X150065000Y-93812000D02*
X150380000Y-93812000D01*
X152490000Y-93812000D02*
X152805000Y-93812000D01*
X150065000Y-93812000D02*
X150065000Y-88572000D01*
X152490000Y-88572000D02*
X152805000Y-88572000D01*
X153365000Y-98876000D02*
X153365000Y-100327000D01*
X153886000Y-98876000D02*
X153886000Y-100126000D01*
X153566000Y-95408000D02*
X153566000Y-96796000D01*
X154606000Y-96093000D02*
X154606000Y-96796000D01*
X153886000Y-95546000D02*
X153886000Y-96796000D01*
X154326000Y-95832000D02*
X154326000Y-96796000D01*
X154446000Y-95935000D02*
X154446000Y-96796000D01*
X153966000Y-95589000D02*
X153966000Y-96796000D01*
X153125000Y-95293000D02*
X153125000Y-96796000D01*
X153165000Y-98876000D02*
X153165000Y-100372000D01*
X154366000Y-95865000D02*
X154366000Y-96796000D01*
X154326000Y-98876000D02*
X154326000Y-99840000D01*
X154006000Y-98876000D02*
X154006000Y-100060000D01*
X152925000Y-98876000D02*
X152925000Y-100405000D01*
X154926000Y-98876000D02*
X154926000Y-99155000D01*
X154206000Y-95741000D02*
X154206000Y-96796000D01*
X152885000Y-95263000D02*
X152885000Y-100409000D01*
X154486000Y-98876000D02*
X154486000Y-99700000D01*
X155166000Y-97031000D02*
X155166000Y-98641000D01*
X154966000Y-98876000D02*
X154966000Y-99087000D01*
X154166000Y-98876000D02*
X154166000Y-99958000D01*
X154086000Y-98876000D02*
X154086000Y-100011000D01*
X152845000Y-95260000D02*
X152845000Y-100412000D01*
X154886000Y-98876000D02*
X154886000Y-99219000D01*
X155206000Y-97159000D02*
X155206000Y-98513000D01*
X154606000Y-98876000D02*
X154606000Y-99579000D01*
X154126000Y-95687000D02*
X154126000Y-96796000D01*
X154366000Y-98876000D02*
X154366000Y-99807000D01*
X154286000Y-98876000D02*
X154286000Y-99871000D01*
X153446000Y-98876000D02*
X153446000Y-100304000D01*
X150130225Y-96111000D02*
X150130225Y-96611000D01*
X149880225Y-96361000D02*
X150380225Y-96361000D01*
X153726000Y-98876000D02*
X153726000Y-100201000D01*
X154966000Y-96585000D02*
X154966000Y-96796000D01*
X155246000Y-97318000D02*
X155246000Y-98354000D01*
X153125000Y-98876000D02*
X153125000Y-100379000D01*
X153165000Y-95300000D02*
X153165000Y-96796000D01*
X154806000Y-98876000D02*
X154806000Y-99336000D01*
X154686000Y-98876000D02*
X154686000Y-99489000D01*
X152725000Y-95256000D02*
X152725000Y-100416000D01*
X152685000Y-95256000D02*
X152685000Y-100416000D01*
X153045000Y-95280000D02*
X153045000Y-96796000D01*
X153005000Y-95275000D02*
X153005000Y-96796000D01*
X154126000Y-98876000D02*
X154126000Y-99985000D01*
X154526000Y-96010000D02*
X154526000Y-96796000D01*
X153325000Y-98876000D02*
X153325000Y-100337000D01*
X153846000Y-98876000D02*
X153846000Y-100146000D01*
X153045000Y-98876000D02*
X153045000Y-100392000D01*
X154486000Y-95972000D02*
X154486000Y-96796000D01*
X153606000Y-98876000D02*
X153606000Y-100250000D01*
X154726000Y-98876000D02*
X154726000Y-99441000D01*
X152925000Y-95267000D02*
X152925000Y-96796000D01*
X153926000Y-98876000D02*
X153926000Y-100104000D01*
X154406000Y-98876000D02*
X154406000Y-99773000D01*
X154206000Y-98876000D02*
X154206000Y-99931000D01*
X153365000Y-95345000D02*
X153365000Y-96796000D01*
X153205000Y-95308000D02*
X153205000Y-96796000D01*
X153926000Y-95568000D02*
X153926000Y-96796000D01*
X153686000Y-95454000D02*
X153686000Y-96796000D01*
X153646000Y-95438000D02*
X153646000Y-96796000D01*
X153806000Y-95507000D02*
X153806000Y-96796000D01*
X153526000Y-95394000D02*
X153526000Y-96796000D01*
X153406000Y-98876000D02*
X153406000Y-100316000D01*
X154806000Y-96336000D02*
X154806000Y-96796000D01*
X153245000Y-95316000D02*
X153245000Y-96796000D01*
X153205000Y-98876000D02*
X153205000Y-100364000D01*
X152965000Y-95271000D02*
X152965000Y-96796000D01*
X153766000Y-98876000D02*
X153766000Y-100184000D01*
X154766000Y-98876000D02*
X154766000Y-99390000D01*
X154846000Y-96393000D02*
X154846000Y-96796000D01*
X153966000Y-98876000D02*
X153966000Y-100083000D01*
X152765000Y-95257000D02*
X152765000Y-100415000D01*
X154566000Y-96051000D02*
X154566000Y-96796000D01*
X155006000Y-96658000D02*
X155006000Y-99014000D01*
X153606000Y-95422000D02*
X153606000Y-96796000D01*
X153406000Y-95356000D02*
X153406000Y-96796000D01*
X152965000Y-98876000D02*
X152965000Y-100401000D01*
X154046000Y-98876000D02*
X154046000Y-100036000D01*
X154726000Y-96231000D02*
X154726000Y-96796000D01*
X153285000Y-95325000D02*
X153285000Y-96796000D01*
X154286000Y-95801000D02*
X154286000Y-96796000D01*
X154446000Y-98876000D02*
X154446000Y-99737000D01*
X152805000Y-95258000D02*
X152805000Y-100414000D01*
X155286000Y-97552000D02*
X155286000Y-98120000D01*
X154046000Y-95636000D02*
X154046000Y-96796000D01*
X154646000Y-98876000D02*
X154646000Y-99535000D01*
X153085000Y-98876000D02*
X153085000Y-100386000D01*
X153446000Y-95368000D02*
X153446000Y-96796000D01*
X153806000Y-98876000D02*
X153806000Y-100165000D01*
X153285000Y-98876000D02*
X153285000Y-100347000D01*
X153686000Y-98876000D02*
X153686000Y-100218000D01*
X154646000Y-96137000D02*
X154646000Y-96796000D01*
X155046000Y-96738000D02*
X155046000Y-98934000D01*
X154766000Y-96282000D02*
X154766000Y-96796000D01*
X155126000Y-96921000D02*
X155126000Y-98751000D01*
X154006000Y-95612000D02*
X154006000Y-96796000D01*
X153325000Y-95335000D02*
X153325000Y-96796000D01*
X154686000Y-96183000D02*
X154686000Y-96796000D01*
X154926000Y-96517000D02*
X154926000Y-96796000D01*
X153766000Y-95488000D02*
X153766000Y-96796000D01*
X153726000Y-95471000D02*
X153726000Y-96796000D01*
X153566000Y-98876000D02*
X153566000Y-100264000D01*
X153846000Y-95526000D02*
X153846000Y-96796000D01*
X154406000Y-95899000D02*
X154406000Y-96796000D01*
X154566000Y-98876000D02*
X154566000Y-99621000D01*
X153486000Y-95381000D02*
X153486000Y-96796000D01*
X154846000Y-98876000D02*
X154846000Y-99279000D01*
X153486000Y-98876000D02*
X153486000Y-100291000D01*
X153526000Y-98876000D02*
X153526000Y-100278000D01*
X154166000Y-95714000D02*
X154166000Y-96796000D01*
X154246000Y-95771000D02*
X154246000Y-96796000D01*
X153646000Y-98876000D02*
X153646000Y-100234000D01*
X153245000Y-98876000D02*
X153245000Y-100356000D01*
X154246000Y-98876000D02*
X154246000Y-99901000D01*
X153085000Y-95286000D02*
X153085000Y-96796000D01*
X155086000Y-96825000D02*
X155086000Y-98847000D01*
X153005000Y-98876000D02*
X153005000Y-100397000D01*
X154526000Y-98876000D02*
X154526000Y-99662000D01*
X154086000Y-95661000D02*
X154086000Y-96796000D01*
X154886000Y-96453000D02*
X154886000Y-96796000D01*
X155305000Y-97836000D02*
G75*
G03*
X155305000Y-97836000I-2620000J0D01*
G01*
D10*
X110200000Y-92750000D02*
X113600000Y-92750000D01*
X110200000Y-92750000D02*
X110200000Y-85750000D01*
X113600000Y-92750000D02*
X113600000Y-85750000D01*
X110200000Y-85750000D02*
X113600000Y-85750000D01*
D12*
X175900000Y-92600000D02*
G75*
G03*
X175900000Y-92600000I-700000J0D01*
G01*
X118932500Y-141301000D02*
X118967500Y-141266000D01*
X130458500Y-139940000D02*
X115338500Y-139940000D01*
X116623500Y-143609000D02*
X116670500Y-143563000D01*
X123932500Y-141301000D02*
X123967500Y-141266000D01*
X130698500Y-138380000D02*
X130698500Y-137640000D01*
X121623500Y-143609000D02*
X121670500Y-143563000D01*
X121828500Y-143815000D02*
X121863500Y-143779000D01*
X130458500Y-147801000D02*
X130458500Y-137880000D01*
X119125500Y-141517000D02*
X119172500Y-141471000D01*
X116828500Y-143815000D02*
X116863500Y-143779000D01*
X130458500Y-144841000D02*
X115338500Y-144841000D01*
X130458500Y-147801000D02*
X115338500Y-147801000D01*
X130698500Y-137640000D02*
X130198500Y-137640000D01*
X115338500Y-147801000D02*
X115338500Y-137880000D01*
X130458500Y-138440000D02*
X115338500Y-138440000D01*
X124125500Y-141517000D02*
X124172500Y-141471000D01*
X130458500Y-137880000D02*
X115338500Y-137880000D01*
X127898500Y-140860000D02*
G75*
G03*
X127215182Y-141005244I-1J-1679992D01*
G01*
X126363500Y-141856000D02*
G75*
G03*
X126363073Y-143223042I1534993J-684001D01*
G01*
X127214500Y-144075000D02*
G75*
G03*
X128581542Y-144075427I684001J1534993D01*
G01*
X129433500Y-143224000D02*
G75*
G03*
X129433927Y-141856958I-1534993J684001D01*
G01*
X128582500Y-141005000D02*
G75*
G03*
X127869695Y-140859747I-683999J-1535001D01*
G01*
X119578500Y-142540000D02*
G75*
G03*
X119578500Y-142540000I-1680000J0D01*
G01*
X124578500Y-142540000D02*
G75*
G03*
X124578500Y-142540000I-1680000J0D01*
G01*
X145707000Y-147801000D02*
X145707000Y-137880000D01*
X145947000Y-138380000D02*
X145947000Y-137640000D01*
X145707000Y-144841000D02*
X130587000Y-144841000D01*
X134181000Y-141301000D02*
X134216000Y-141266000D01*
X145707000Y-147801000D02*
X130587000Y-147801000D01*
X145707000Y-139940000D02*
X130587000Y-139940000D01*
X139181000Y-141301000D02*
X139216000Y-141266000D01*
X130587000Y-147801000D02*
X130587000Y-137880000D01*
X134374000Y-141517000D02*
X134421000Y-141471000D01*
X145947000Y-137640000D02*
X145447000Y-137640000D01*
X145707000Y-138440000D02*
X130587000Y-138440000D01*
X131872000Y-143609000D02*
X131919000Y-143563000D01*
X139374000Y-141517000D02*
X139421000Y-141471000D01*
X137077000Y-143815000D02*
X137112000Y-143779000D01*
X136872000Y-143609000D02*
X136919000Y-143563000D01*
X145707000Y-137880000D02*
X130587000Y-137880000D01*
X132077000Y-143815000D02*
X132112000Y-143779000D01*
X141612000Y-141856000D02*
G75*
G03*
X141611573Y-143223042I1534993J-684001D01*
G01*
X143831000Y-141005000D02*
G75*
G03*
X143118195Y-140859747I-683999J-1535001D01*
G01*
X142463000Y-144075000D02*
G75*
G03*
X143830042Y-144075427I684001J1534993D01*
G01*
X144682000Y-143224000D02*
G75*
G03*
X144682427Y-141856958I-1534993J684001D01*
G01*
X143147000Y-140860000D02*
G75*
G03*
X142463682Y-141005244I-1J-1679992D01*
G01*
X134827000Y-142540000D02*
G75*
G03*
X134827000Y-142540000I-1680000J0D01*
G01*
X139827000Y-142540000D02*
G75*
G03*
X139827000Y-142540000I-1680000J0D01*
G01*
X112065000Y-101169000D02*
X112065000Y-104329000D01*
X112985000Y-100249000D02*
G75*
G03*
X112985000Y-100249000I-920000J0D01*
G01*
X166397936Y-87710000D02*
X167602064Y-87710000D01*
X166397936Y-85890000D02*
X167602064Y-85890000D01*
X118050000Y-114230000D02*
X120050000Y-114230000D01*
X127400000Y-137190000D02*
X127400000Y-114490000D01*
X118700000Y-119540000D02*
X119400000Y-119140000D01*
X119400000Y-119940000D02*
X119400000Y-118740000D01*
X118700000Y-118740000D02*
X118700000Y-119940000D01*
X114550000Y-119340000D02*
X117700000Y-119340000D01*
X110700000Y-114490000D02*
X110700000Y-137190000D01*
X120400000Y-119340000D02*
X123550000Y-119340000D01*
X110700000Y-137190000D02*
X127400000Y-137190000D01*
X119400000Y-118740000D02*
X118700000Y-118740000D01*
X118700000Y-119940000D02*
X119400000Y-119940000D01*
X127400000Y-114490000D02*
X110700000Y-114490000D01*
X162164500Y-95639000D02*
X158104500Y-95639000D01*
X158104500Y-97909000D02*
X162164500Y-97909000D01*
X158104500Y-95639000D02*
X158104500Y-97909000D01*
X116330000Y-113784000D02*
X121770000Y-113784000D01*
X115310000Y-112314000D02*
X116330000Y-112314000D01*
X121770000Y-110844000D02*
X116330000Y-110844000D01*
X120750000Y-113784000D02*
X120750000Y-110844000D01*
X122790000Y-112314000D02*
X121770000Y-112314000D01*
X121770000Y-113784000D02*
X121770000Y-110844000D01*
X120990000Y-113784000D02*
X120990000Y-110844000D01*
X116330000Y-110844000D02*
X116330000Y-113784000D01*
X120870000Y-113784000D02*
X120870000Y-110844000D01*
X169100000Y-139820000D02*
X169100000Y-140840000D01*
X169100000Y-137730000D02*
X169100000Y-138300000D01*
X169100000Y-142360000D02*
X169100000Y-143380000D01*
X167660000Y-138300000D02*
X169100000Y-138300000D01*
X174300000Y-144900000D02*
X174300000Y-145470000D01*
X174300000Y-139820000D02*
X174300000Y-140840000D01*
X174300000Y-142360000D02*
X174300000Y-143380000D01*
X169100000Y-144900000D02*
X169100000Y-145470000D01*
X174300000Y-137730000D02*
X174300000Y-138300000D01*
X169100000Y-145470000D02*
X174300000Y-145470000D01*
X169100000Y-137730000D02*
X174300000Y-137730000D01*
X151888000Y-112336000D02*
X151888000Y-108736000D01*
X151876478Y-108697522D02*
G75*
G03*
X147438000Y-110536000I-1838478J-1838478D01*
G01*
X147437999Y-110536000D02*
G75*
G03*
X151876478Y-112374478I2600001J0D01*
G01*
X169302064Y-88590000D02*
X168097936Y-88590000D01*
X169302064Y-90410000D02*
X168097936Y-90410000D01*
X139450000Y-119340000D02*
X142600000Y-119340000D01*
X137100000Y-114230000D02*
X139100000Y-114230000D01*
X138450000Y-118740000D02*
X137750000Y-118740000D01*
X138450000Y-119940000D02*
X138450000Y-118740000D01*
X129750000Y-137190000D02*
X146450000Y-137190000D01*
X137750000Y-118740000D02*
X137750000Y-119940000D01*
X137750000Y-119540000D02*
X138450000Y-119140000D01*
X133600000Y-119340000D02*
X136750000Y-119340000D01*
X129750000Y-114490000D02*
X129750000Y-137190000D01*
X146450000Y-114490000D02*
X129750000Y-114490000D01*
X137750000Y-119940000D02*
X138450000Y-119940000D01*
X146450000Y-137190000D02*
X146450000Y-114490000D01*
X153043000Y-101462500D02*
X153043000Y-105522500D01*
X155313000Y-101462500D02*
X153043000Y-101462500D01*
X155313000Y-105522500D02*
X155313000Y-101462500D01*
X131189000Y-113657000D02*
X136629000Y-113657000D01*
X135609000Y-113657000D02*
X135609000Y-110717000D01*
X136629000Y-113657000D02*
X136629000Y-110717000D01*
X135729000Y-113657000D02*
X135729000Y-110717000D01*
X130169000Y-112187000D02*
X131189000Y-112187000D01*
X137649000Y-112187000D02*
X136629000Y-112187000D01*
X131189000Y-110717000D02*
X131189000Y-113657000D01*
X135849000Y-113657000D02*
X135849000Y-110717000D01*
X136629000Y-110717000D02*
X131189000Y-110717000D01*
X107200000Y-96252000D02*
X107200000Y-86132000D01*
X97279000Y-96252000D02*
X97279000Y-86132000D01*
X107440000Y-96492000D02*
X107440000Y-95992000D01*
X100239000Y-96252000D02*
X100239000Y-86132000D01*
X101471000Y-87417000D02*
X101517000Y-87464000D01*
X103563000Y-89919000D02*
X103609000Y-89966000D01*
X97279000Y-86132000D02*
X107200000Y-86132000D01*
X106700000Y-96492000D02*
X107440000Y-96492000D01*
X103779000Y-89726000D02*
X103814000Y-89761000D01*
X106640000Y-96252000D02*
X106640000Y-86132000D01*
X105140000Y-96252000D02*
X105140000Y-86132000D01*
X101265000Y-87622000D02*
X101301000Y-87657000D01*
X97279000Y-96252000D02*
X107200000Y-96252000D01*
X104075000Y-94376000D02*
G75*
G03*
X104220253Y-93663195I-1535001J683999D01*
G01*
X104220000Y-93692000D02*
G75*
G03*
X104074756Y-93008682I-1679992J1D01*
G01*
X103224000Y-92157000D02*
G75*
G03*
X101856958Y-92156573I-684001J-1534993D01*
G01*
X101005000Y-93008000D02*
G75*
G03*
X101004573Y-94375042I1534993J-684001D01*
G01*
X101856000Y-95227000D02*
G75*
G03*
X103223042Y-95227427I684001J1534993D01*
G01*
X104220000Y-88692000D02*
G75*
G03*
X104220000Y-88692000I-1680000J0D01*
G01*
X169013000Y-105612000D02*
X175513000Y-105612000D01*
X169013000Y-106262000D02*
X169013000Y-105612000D01*
X169013000Y-111762000D02*
X169013000Y-112412000D01*
X169013000Y-112412000D02*
X175513000Y-112412000D01*
X175513000Y-105612000D02*
X175513000Y-106262000D01*
X175513000Y-112412000D02*
X175513000Y-111762000D01*
X169013000Y-110262000D02*
X169013000Y-107762000D01*
X175513000Y-110262000D02*
X175513000Y-107762000D01*
X97200000Y-126000000D02*
X97200000Y-103500000D01*
X106800000Y-103500000D02*
X104000000Y-103500000D01*
X100000000Y-103500000D02*
X97200000Y-103500000D01*
X106800000Y-126000000D02*
X104000000Y-126000000D01*
X100000000Y-126000000D02*
X97200000Y-126000000D01*
X106800000Y-126000000D02*
X106800000Y-103500000D01*
D13*
X117780000Y-93772000D03*
X117780000Y-98772000D03*
X147180000Y-88572000D03*
X147180000Y-103972000D03*
%LPC*%
D14*
X166365000Y-120462000D03*
X164365000Y-120462000D03*
X162365000Y-120462000D03*
X160365000Y-120462000D03*
X158365000Y-120462000D03*
X156365000Y-120462000D03*
X154365000Y-120462000D03*
X152365000Y-120462000D03*
D15*
X150865000Y-123062000D03*
X150865000Y-125062000D03*
X150865000Y-127062000D03*
X150865000Y-129062000D03*
X150865000Y-131062000D03*
X150865000Y-133062000D03*
D14*
X152365000Y-135662000D03*
X154365000Y-135662000D03*
X156365000Y-135662000D03*
X158365000Y-135662000D03*
X160365000Y-135662000D03*
X162365000Y-135662000D03*
X164365000Y-135662000D03*
X166365000Y-135662000D03*
D16*
X125073000Y-109266000D03*
X122098000Y-109266000D03*
X157280000Y-107950000D03*
X154305000Y-107950000D03*
X140567000Y-109266000D03*
X137592000Y-109266000D03*
D17*
X164643000Y-97672500D03*
X164643000Y-94697500D03*
D16*
X161979000Y-100076000D03*
X159004000Y-100076000D03*
X156007000Y-141270000D03*
X153032000Y-141270000D03*
D18*
X152832000Y-138730000D03*
X155807000Y-138730000D03*
D17*
X156896000Y-105329000D03*
X156896000Y-102354000D03*
X158420000Y-141578000D03*
X158420000Y-138603000D03*
D19*
X166294000Y-114546000D03*
X166294000Y-117521000D03*
D20*
X163373000Y-89454000D03*
D21*
X163373000Y-91954000D03*
D22*
X167072000Y-98283000D03*
X167072000Y-100183000D03*
X169072000Y-99233000D03*
D19*
X169596000Y-114419000D03*
X169596000Y-117394000D03*
D18*
X159563000Y-103170000D03*
X162538000Y-103170000D03*
D17*
X167200000Y-95500000D03*
X167200000Y-92525000D03*
D18*
X116764000Y-109266000D03*
X119739000Y-109266000D03*
X163319000Y-112060000D03*
X166294000Y-112060000D03*
D19*
X149300000Y-114612500D03*
X149300000Y-117587500D03*
X163881000Y-105583000D03*
X163881000Y-108558000D03*
D13*
X117780000Y-93772000D03*
X117780000Y-98772000D03*
X147180000Y-88572000D03*
X147180000Y-103972000D03*
D16*
X167687500Y-103200000D03*
X164712500Y-103200000D03*
D21*
X159900000Y-87250000D03*
X154900000Y-87250000D03*
D23*
X175184000Y-97000000D03*
D24*
X175184000Y-102000000D03*
D18*
X132258000Y-109266000D03*
X135233000Y-109266000D03*
D25*
X161031000Y-106045000D03*
X159131000Y-106045000D03*
X160081000Y-108045000D03*
D19*
X172263000Y-114473000D03*
X172263000Y-117448000D03*
D26*
X158420000Y-117902000D03*
X164516000Y-139365000D03*
X166294000Y-138222000D03*
X161214000Y-139365000D03*
X166400000Y-106400000D03*
D23*
X112650000Y-142540000D03*
D24*
X107650000Y-142540000D03*
X102650000Y-142540000D03*
D26*
X162865000Y-138222000D03*
D21*
X151435000Y-93692000D03*
X151435000Y-88692000D03*
D20*
X151435000Y-97836000D03*
D21*
X153935000Y-97836000D03*
X111250000Y-91750000D03*
X112550000Y-86750000D03*
D26*
X175200000Y-92600000D03*
D23*
X127898500Y-142540000D03*
D24*
X122898500Y-142540000D03*
X117898500Y-142540000D03*
D23*
X143147000Y-142540000D03*
D24*
X138147000Y-142540000D03*
X133147000Y-142540000D03*
D27*
X112065000Y-100249000D03*
D28*
X112065000Y-105329000D03*
D18*
X165512500Y-86800000D03*
X168487500Y-86800000D03*
D29*
X119050000Y-117140000D03*
D30*
X113050000Y-119140000D03*
X113050000Y-131340000D03*
X125050000Y-131340000D03*
X125050000Y-119140000D03*
D18*
X159077000Y-96774000D03*
X162052000Y-96774000D03*
D31*
X124130000Y-112314000D03*
D32*
X113970000Y-112314000D03*
D33*
X169175000Y-139060000D03*
X174225000Y-139060000D03*
X169175000Y-141600000D03*
X174225000Y-141600000D03*
X169175000Y-144140000D03*
X174225000Y-144140000D03*
D34*
X150038000Y-111806000D03*
D35*
X150038000Y-110536000D03*
X150038000Y-109266000D03*
D16*
X170187500Y-89500000D03*
X167212500Y-89500000D03*
D29*
X138100000Y-117140000D03*
D30*
X132100000Y-119140000D03*
X132100000Y-131340000D03*
X144100000Y-131340000D03*
X144100000Y-119140000D03*
D19*
X154178000Y-102435000D03*
X154178000Y-105410000D03*
D31*
X138989000Y-112187000D03*
D32*
X128829000Y-112187000D03*
D23*
X102540000Y-93692000D03*
D24*
X102540000Y-88692000D03*
D36*
X169383000Y-111012000D03*
X175143000Y-111012000D03*
X169383000Y-107012000D03*
X175143000Y-107012000D03*
D37*
X102000000Y-114750000D03*
D38*
X102000000Y-126000000D03*
X102000000Y-103500000D03*
M02*
