%TF.GenerationSoftware,KiCad,Pcbnew,(6.0.1)*%
%TF.CreationDate,2022-01-24T21:35:52+01:00*%
%TF.ProjectId,SmartSwitch,536d6172-7453-4776-9974-63682e6b6963,rev?*%
%TF.SameCoordinates,Original*%
%TF.FileFunction,Soldermask,Top*%
%TF.FilePolarity,Negative*%
%FSLAX46Y46*%
G04 Gerber Fmt 4.6, Leading zero omitted, Abs format (unit mm)*
G04 Created by KiCad (PCBNEW (6.0.1)) date 2022-01-24 21:35:52*
%MOMM*%
%LPD*%
G01*
G04 APERTURE LIST*
G04 Aperture macros list*
%AMRoundRect*
0 Rectangle with rounded corners*
0 $1 Rounding radius*
0 $2 $3 $4 $5 $6 $7 $8 $9 X,Y pos of 4 corners*
0 Add a 4 corners polygon primitive as box body*
4,1,4,$2,$3,$4,$5,$6,$7,$8,$9,$2,$3,0*
0 Add four circle primitives for the rounded corners*
1,1,$1+$1,$2,$3*
1,1,$1+$1,$4,$5*
1,1,$1+$1,$6,$7*
1,1,$1+$1,$8,$9*
0 Add four rect primitives between the rounded corners*
20,1,$1+$1,$2,$3,$4,$5,0*
20,1,$1+$1,$4,$5,$6,$7,0*
20,1,$1+$1,$6,$7,$8,$9,0*
20,1,$1+$1,$8,$9,$2,$3,0*%
G04 Aperture macros list end*
%ADD10R,1.000000X2.500000*%
%ADD11R,1.800000X1.000000*%
%ADD12RoundRect,0.250001X0.462499X0.624999X-0.462499X0.624999X-0.462499X-0.624999X0.462499X-0.624999X0*%
%ADD13RoundRect,0.250001X0.624999X-0.462499X0.624999X0.462499X-0.624999X0.462499X-0.624999X-0.462499X0*%
%ADD14RoundRect,0.250001X-0.462499X-0.624999X0.462499X-0.624999X0.462499X0.624999X-0.462499X0.624999X0*%
%ADD15RoundRect,0.250001X-0.624999X0.462499X-0.624999X-0.462499X0.624999X-0.462499X0.624999X0.462499X0*%
%ADD16R,1.600000X1.600000*%
%ADD17C,1.600000*%
%ADD18R,0.900000X0.800000*%
%ADD19C,2.500000*%
%ADD20R,2.600000X2.600000*%
%ADD21C,2.600000*%
%ADD22R,0.800000X0.900000*%
%ADD23C,1.000000*%
%ADD24C,1.400000*%
%ADD25O,1.400000X1.400000*%
%ADD26R,2.500000X2.500000*%
%ADD27O,2.500000X2.500000*%
%ADD28R,2.200000X2.200000*%
%ADD29O,2.200000X2.200000*%
%ADD30R,3.150000X1.000000*%
%ADD31R,1.500000X1.050000*%
%ADD32O,1.500000X1.050000*%
%ADD33R,2.750000X1.000000*%
%ADD34C,2.700000*%
%ADD35C,3.000000*%
G04 APERTURE END LIST*
D10*
X166365000Y-120462000D03*
X164365000Y-120462000D03*
X162365000Y-120462000D03*
X160365000Y-120462000D03*
X158365000Y-120462000D03*
X156365000Y-120462000D03*
X154365000Y-120462000D03*
X152365000Y-120462000D03*
D11*
X150865000Y-123062000D03*
X150865000Y-125062000D03*
X150865000Y-127062000D03*
X150865000Y-129062000D03*
X150865000Y-131062000D03*
X150865000Y-133062000D03*
D10*
X152365000Y-135662000D03*
X154365000Y-135662000D03*
X156365000Y-135662000D03*
X158365000Y-135662000D03*
X160365000Y-135662000D03*
X162365000Y-135662000D03*
X164365000Y-135662000D03*
X166365000Y-135662000D03*
D12*
X125073000Y-109266000D03*
X122098000Y-109266000D03*
X157280000Y-107950000D03*
X154305000Y-107950000D03*
X140567000Y-109266000D03*
X137592000Y-109266000D03*
D13*
X164643000Y-97672500D03*
X164643000Y-94697500D03*
D12*
X161979000Y-100076000D03*
X159004000Y-100076000D03*
X156007000Y-141270000D03*
X153032000Y-141270000D03*
D14*
X152832000Y-138730000D03*
X155807000Y-138730000D03*
D13*
X156896000Y-105329000D03*
X156896000Y-102354000D03*
X158420000Y-141578000D03*
X158420000Y-138603000D03*
D15*
X166294000Y-114546000D03*
X166294000Y-117521000D03*
D16*
X163373000Y-89454000D03*
D17*
X163373000Y-91954000D03*
D18*
X167072000Y-98283000D03*
X167072000Y-100183000D03*
X169072000Y-99233000D03*
D15*
X169596000Y-114419000D03*
X169596000Y-117394000D03*
D14*
X159563000Y-103170000D03*
X162538000Y-103170000D03*
D13*
X167200000Y-95500000D03*
X167200000Y-92525000D03*
D14*
X116764000Y-109266000D03*
X119739000Y-109266000D03*
X163319000Y-112060000D03*
X166294000Y-112060000D03*
D15*
X149300000Y-114612500D03*
X149300000Y-117587500D03*
X163881000Y-105583000D03*
X163881000Y-108558000D03*
D19*
X117780000Y-93772000D03*
X117780000Y-98772000D03*
X147180000Y-88572000D03*
X147180000Y-103972000D03*
D12*
X167687500Y-103200000D03*
X164712500Y-103200000D03*
D17*
X159900000Y-87250000D03*
X154900000Y-87250000D03*
D20*
X175184000Y-97000000D03*
D21*
X175184000Y-102000000D03*
D14*
X132258000Y-109266000D03*
X135233000Y-109266000D03*
D22*
X161031000Y-106045000D03*
X159131000Y-106045000D03*
X160081000Y-108045000D03*
D15*
X172263000Y-114473000D03*
X172263000Y-117448000D03*
D23*
X158420000Y-117902000D03*
X164516000Y-139365000D03*
X166294000Y-138222000D03*
X161214000Y-139365000D03*
X166400000Y-106400000D03*
D20*
X112650000Y-142540000D03*
D21*
X107650000Y-142540000D03*
X102650000Y-142540000D03*
D23*
X162865000Y-138222000D03*
D17*
X151435000Y-93692000D03*
X151435000Y-88692000D03*
D16*
X151435000Y-97836000D03*
D17*
X153935000Y-97836000D03*
X111250000Y-91750000D03*
X112550000Y-86750000D03*
D23*
X175200000Y-92600000D03*
D20*
X127898500Y-142540000D03*
D21*
X122898500Y-142540000D03*
X117898500Y-142540000D03*
D20*
X143147000Y-142540000D03*
D21*
X138147000Y-142540000D03*
X133147000Y-142540000D03*
D24*
X112065000Y-100249000D03*
D25*
X112065000Y-105329000D03*
D14*
X165512500Y-86800000D03*
X168487500Y-86800000D03*
D26*
X119050000Y-117140000D03*
D27*
X113050000Y-119140000D03*
X113050000Y-131340000D03*
X125050000Y-131340000D03*
X125050000Y-119140000D03*
D14*
X159077000Y-96774000D03*
X162052000Y-96774000D03*
D28*
X124130000Y-112314000D03*
D29*
X113970000Y-112314000D03*
D30*
X169175000Y-139060000D03*
X174225000Y-139060000D03*
X169175000Y-141600000D03*
X174225000Y-141600000D03*
X169175000Y-144140000D03*
X174225000Y-144140000D03*
D31*
X150038000Y-111806000D03*
D32*
X150038000Y-110536000D03*
X150038000Y-109266000D03*
D12*
X170187500Y-89500000D03*
X167212500Y-89500000D03*
D26*
X138100000Y-117140000D03*
D27*
X132100000Y-119140000D03*
X132100000Y-131340000D03*
X144100000Y-131340000D03*
X144100000Y-119140000D03*
D15*
X154178000Y-102435000D03*
X154178000Y-105410000D03*
D28*
X138989000Y-112187000D03*
D29*
X128829000Y-112187000D03*
D20*
X102540000Y-93692000D03*
D21*
X102540000Y-88692000D03*
D33*
X169383000Y-111012000D03*
X175143000Y-111012000D03*
X169383000Y-107012000D03*
X175143000Y-107012000D03*
D34*
X102000000Y-114750000D03*
D35*
X102000000Y-126000000D03*
X102000000Y-103500000D03*
M02*
